<svg width="250" height="84" fill="none" xmlns="http://www.w3.org/2000/svg"><mask id="a" fill="#fff"><path d="M175.497 82.302c-3.915-1.239-8.465-3.518-9.112-4.565-.357-.578 1.654-8.09 2.437-9.1.096-.125 2.389.942 5.095 2.37 4.345 2.296 5.541 2.56 10.248 2.268 4.562-.284 5.613-.662 7.303-2.626 3.303-3.84 2.352-8.611-2.183-10.957-3.092-1.599-7.795-1.605-13.028-.017-2.254.683-4.356 1.247-4.673 1.252-.316.005.01-1.708.725-3.806l1.299-3.814-2.725-2.654c-8.906-8.671-5.635-23.558 6.284-28.597 2.59-1.095 5.597-1.382 13.41-1.28 7.169.095 11.108-.233 13.668-1.136 1.977-.698 3.882-1.269 4.232-1.269.35 0 .06 2.288-.645 5.084l-1.28 5.084-3.217-.307c-1.769-.169-3.216-.22-3.216-.113 0 .106.939 1.577 2.086 3.268 1.59 2.342 2.087 4.15 2.087 7.59 0 5.24-1.382 8.347-5.104 11.48l-2.66 2.238 3.065 2.526c4.068 3.354 5.533 6.414 5.533 11.557 0 5.06-1.379 8.02-5.37 11.525-5.309 4.662-16.388 6.488-24.257 4l-.002-.001zm13.275-34.836c2.239-1.02 4.669-5.275 4.669-8.175 0-2.81-2.203-7.347-4.047-8.334-9.115-4.878-17.144 8.65-9.135 15.389 2.68 2.255 5.273 2.596 8.513 1.12zM72.43 64.888c-1.603-.535-4.857-2.864-7.231-5.175-5.234-5.096-7.429-11.226-6.74-18.822 1.41-15.553 16.746-24.872 29.791-18.104l4.204 2.18V6.687h12.519v58.42H93.288V60.17l-4.228 2.629c-4.764 2.96-11.485 3.806-16.63 2.09zm13.65-10.946c11.241-4.697 7.96-22.226-4.158-22.214-12.311.012-15.454 17.13-4.075 22.188 3.228 1.434 4.853 1.439 8.233.026zm138.233 11.22c-5.738-1.745-10.89-6.104-13.873-11.739-1.157-2.185-1.546-4.709-1.542-10.015.004-6.049.328-7.709 2.205-11.267 2.599-4.928 4.798-7.075 9.84-9.608 4.428-2.224 12.244-2.517 16.754-.628 7.065 2.96 11.902 10.89 12.011 19.69l.065 5.28-14.397-.098c-11.862-.082-14.396.108-14.396 1.075 0 2.21 3.356 5.44 7.162 6.894 3.214 1.227 4.561 1.313 8.65.553 2.664-.495 6.437-1.67 8.385-2.612l3.542-1.711-.527 2.639c-1.748 8.739-1.797 8.805-7.712 10.632-5.529 1.708-12.301 2.091-16.167.915zm13.567-27.116c-.114-.264-.208-1.072-.208-1.796s-1.098-2.414-2.44-3.756c-3.528-3.528-7.632-3.384-11.415.398-1.56 1.56-2.837 3.532-2.837 4.382-.001 1.411.734 1.531 8.554 1.398 4.705-.08 8.462-.362 8.346-.626zm-225.239-1.94L25.285 7.102h9.818l11.985 27.52C53.68 49.757 59.29 62.824 59.555 63.66c.443 1.394-.052 1.5-5.996 1.275l-6.478-.245-4.406-10.85-25.173-.46-4.6 11.727H0l12.642-29.003zm24.726 5.805c0-.365-1.66-4.778-3.687-9.807-3.345-8.296-3.761-8.95-4.496-7.057a1235.72 1235.72 0 01-3.824 9.551c-1.659 4.106-3.016 7.58-3.016 7.72 0 .14 3.38.255 7.511.255 4.132 0 7.512-.298 7.512-.662zm71.794 22.57c.01-.344 5.575-13.395 12.366-29.002l12.347-28.376h9.859l25.315 58.068-13.291-.481-4.52-10.85-25.124-.46-4.601 11.727h-6.185c-3.402 0-6.177-.281-6.166-.626zm33.631-31.297c-2.072-5.164-3.871-9.498-3.998-9.631-.127-.133-1.875 3.792-3.883 8.724a4537.142 4537.142 0 01-3.931 9.631c-.153.366 3.29.666 7.651.666h7.929l-3.768-9.39z"/></mask><path d="M175.497 82.302c-3.915-1.239-8.465-3.518-9.112-4.565-.357-.578 1.654-8.09 2.437-9.1.096-.125 2.389.942 5.095 2.37 4.345 2.296 5.541 2.56 10.248 2.268 4.562-.284 5.613-.662 7.303-2.626 3.303-3.84 2.352-8.611-2.183-10.957-3.092-1.599-7.795-1.605-13.028-.017-2.254.683-4.356 1.247-4.673 1.252-.316.005.01-1.708.725-3.806l1.299-3.814-2.725-2.654c-8.906-8.671-5.635-23.558 6.284-28.597 2.59-1.095 5.597-1.382 13.41-1.28 7.169.095 11.108-.233 13.668-1.136 1.977-.698 3.882-1.269 4.232-1.269.35 0 .06 2.288-.645 5.084l-1.28 5.084-3.217-.307c-1.769-.169-3.216-.22-3.216-.113 0 .106.939 1.577 2.086 3.268 1.59 2.342 2.087 4.15 2.087 7.59 0 5.24-1.382 8.347-5.104 11.48l-2.66 2.238 3.065 2.526c4.068 3.354 5.533 6.414 5.533 11.557 0 5.06-1.379 8.02-5.37 11.525-5.309 4.662-16.388 6.488-24.257 4l-.002-.001zm13.275-34.836c2.239-1.02 4.669-5.275 4.669-8.175 0-2.81-2.203-7.347-4.047-8.334-9.115-4.878-17.144 8.65-9.135 15.389 2.68 2.255 5.273 2.596 8.513 1.12zM72.43 64.888c-1.603-.535-4.857-2.864-7.231-5.175-5.234-5.096-7.429-11.226-6.74-18.822 1.41-15.553 16.746-24.872 29.791-18.104l4.204 2.18V6.687h12.519v58.42H93.288V60.17l-4.228 2.629c-4.764 2.96-11.485 3.806-16.63 2.09zm13.65-10.946c11.241-4.697 7.96-22.226-4.158-22.214-12.311.012-15.454 17.13-4.075 22.188 3.228 1.434 4.853 1.439 8.233.026zm138.233 11.22c-5.738-1.745-10.89-6.104-13.873-11.739-1.157-2.185-1.546-4.709-1.542-10.015.004-6.049.328-7.709 2.205-11.267 2.599-4.928 4.798-7.075 9.84-9.608 4.428-2.224 12.244-2.517 16.754-.628 7.065 2.96 11.902 10.89 12.011 19.69l.065 5.28-14.397-.098c-11.862-.082-14.396.108-14.396 1.075 0 2.21 3.356 5.44 7.162 6.894 3.214 1.227 4.561 1.313 8.65.553 2.664-.495 6.437-1.67 8.385-2.612l3.542-1.711-.527 2.639c-1.748 8.739-1.797 8.805-7.712 10.632-5.529 1.708-12.301 2.091-16.167.915zm13.567-27.116c-.114-.264-.208-1.072-.208-1.796s-1.098-2.414-2.44-3.756c-3.528-3.528-7.632-3.384-11.415.398-1.56 1.56-2.837 3.532-2.837 4.382-.001 1.411.734 1.531 8.554 1.398 4.705-.08 8.462-.362 8.346-.626zm-225.239-1.94L25.285 7.102h9.818l11.985 27.52C53.68 49.757 59.29 62.824 59.555 63.66c.443 1.394-.052 1.5-5.996 1.275l-6.478-.245-4.406-10.85-25.173-.46-4.6 11.727H0l12.642-29.003zm24.726 5.805c0-.365-1.66-4.778-3.687-9.807-3.345-8.296-3.761-8.95-4.496-7.057a1235.72 1235.72 0 01-3.824 9.551c-1.659 4.106-3.016 7.58-3.016 7.72 0 .14 3.38.255 7.511.255 4.132 0 7.512-.298 7.512-.662zm71.794 22.57c.01-.344 5.575-13.395 12.366-29.002l12.347-28.376h9.859l25.315 58.068-13.291-.481-4.52-10.85-25.124-.46-4.601 11.727h-6.185c-3.402 0-6.177-.281-6.166-.626zm33.631-31.297c-2.072-5.164-3.871-9.498-3.998-9.631-.127-.133-1.875 3.792-3.883 8.724a4537.142 4537.142 0 01-3.931 9.631c-.153.366 3.29.666 7.651.666h7.929l-3.768-9.39z" fill="#fff" stroke="#979797" stroke-width="1.669" mask="url(#a)"/></svg>