<svg width="249" height="83" fill="none" xmlns="http://www.w3.org/2000/svg"><mask id="a" fill="#fff"><path d="M24.001 6.066h5.445a18.34 18.34 0 019.791 1.241 17.337 17.337 0 017.833 10.46c.812 2.293.812 2.293 2.77 1.48h1.528V1.1H.121v3.2h2.101a6.113 6.113 0 014.776 2.244c1.959 3.152 2.293 6.687 2.293 25.075 0 19.534-.43 24.31-2.293 26.746a5.158 5.158 0 01-3.964 2.101c-2.913.526-2.913.478-2.913 1.767a1.91 1.91 0 000 1.338h32.334a3.009 3.009 0 000-2.723 16.477 16.477 0 00-2.388-.477 15.952 15.952 0 01-2.58-.526 8.597 8.597 0 01-3.486-7.785c-.477-3.152-.716-8.931-.716-13.707V34.58h1.91c2.38-.073 4.76.184 7.069.764a8.837 8.837 0 014.107 6.304l.43 1.481h2.914V21.97H37.04l-.43 2.054a8.502 8.502 0 01-4.346 6.304 7.974 7.974 0 01-3.487.239h-5.492v-5.158c0-5.35.286-16.621.477-18.388l.24-.955zM247.522 43.94a17.34 17.34 0 00-9.886-7.498 23.88 23.88 0 01-8.55-4.777 4.771 4.771 0 01-1.385-4.25 5.684 5.684 0 011.672-4.012 5.78 5.78 0 015.731-1.576 12.034 12.034 0 018.454 8.979c.764 2.149.86 2.149 2.245 1.576l.859-.334V20.154l-.621-.287a36.915 36.915 0 00-14.662-2.005 17.195 17.195 0 00-11.463 4.776 13.192 13.192 0 00-4.155 10.316 11.319 11.319 0 003.248 7.833 19.391 19.391 0 008.119 4.776c7.403 2.913 9.552 4.776 9.552 8.167a6.301 6.301 0 01-4.776 6.257 11.793 11.793 0 01-5.062 0 14.712 14.712 0 01-8.932-10.078l-.621-1.528h-.859c-.411.03-.814.127-1.194.286h-.478v13.564h.812a49.253 49.253 0 009.934 2.197h4.776a18.72 18.72 0 006.161-.573 14.852 14.852 0 0011.272-9.552 11.09 11.09 0 00.86-4.298 11.89 11.89 0 00-1.051-6.066zm-44.991-24.692a22.016 22.016 0 00-18.006.43 20.97 20.97 0 00-10.937 13.038 25.49 25.49 0 00-1.289 9.552 25.998 25.998 0 00.43 5.254 21.203 21.203 0 0017.146 17.098c2.775.35 5.583.35 8.358 0a22.93 22.93 0 008.119-3.104 14.33 14.33 0 005.063-4.776 2.396 2.396 0 00-1.146-1.48c-.546.197-1.06.47-1.529.811a13.66 13.66 0 01-8.024 2.245 12.75 12.75 0 01-10.173-4.012 11.414 11.414 0 01-2.435-3.248 22.205 22.205 0 01-2.341-9.552v-1.862h26.46v-.956a23.62 23.62 0 000-2.865 19.11 19.11 0 00-9.696-16.573zm-13.325 16.525h-3.343v-2.818c1.098-7.212 3.821-11.51 7.164-11.51 3.343 0 4.776 4.25 5.397 12.035v2.197h-2.866l-6.352.096zm-68.68-18.102a10.03 10.03 0 00-4.776 1.003 16.001 16.001 0 00-7.403 7.403l-.621 1.147v-9.552h-.239c-.573 0-18.244 3.534-18.818 3.773-.573.238-.382.286-.382 1.146 0 .86 0 1.003.382 1.05l1.863.383a3.44 3.44 0 012.675 1.385c1.194 1.576 1.433 4.346 1.433 16.143a92.232 92.232 0 01-.67 15.904 3.917 3.917 0 01-3.295 3.105l-1.623.334h-.621v1.337c-.174.446-.174.94 0 1.386h26.698v-1.386a3.473 3.473 0 000-1.385 26.68 26.68 0 01-4.776-.62 4.77 4.77 0 01-2.531-4.777c-.383-2.77-.574-10.89-.478-17.098.095-6.209 0-6.591.525-7.02a8.596 8.596 0 015.588-1.768 12.46 12.46 0 015.445 1.385 7.147 7.147 0 001.863.716s4.776-11.558 4.776-12.083a5.634 5.634 0 00-5.015-1.91zm-32.19 20.06a21.444 21.444 0 00-9.84-17.003 24.836 24.836 0 00-22.352-.62 21.588 21.588 0 00-10.46 12.417 31.905 31.905 0 000 18.34c.942 3.27 2.7 6.245 5.111 8.645a19.39 19.39 0 0011.033 5.35 48.42 48.42 0 008.024 0c.982-.15 1.955-.358 2.913-.622a21.253 21.253 0 0015.236-16.955 41.74 41.74 0 00.334-9.552zm-19.87 23.88c-4.775 1.433-8.357-3.2-9.552-12.943a89.501 89.501 0 010-15.33c.956-7.834 3.392-11.798 7.165-11.798a4.777 4.777 0 014.012 1.767c3.2 3.2 4.776 9.552 4.776 19.105a35.393 35.393 0 01-2.484 15.856 7.26 7.26 0 01-3.916 3.105v.239zm85.97-42.984a15.909 15.909 0 00-4.06 0 18.05 18.05 0 00-7.498 1.624l-1.481.62V10.508c.259-3.497.259-7.01 0-10.507-.573 0-18.817 3.487-19.104 3.63a1.48 1.48 0 000 1.098c0 1.003 0 .956 2.149 1.433.604.135 1.183.36 1.72.669a5.88 5.88 0 011.767 3.295 54.63 54.63 0 01.525 10.985v41.934l1.29.287c1.91.43 7.307 1.337 9.074 1.528 3.529.28 7.075.28 10.603 0a21.637 21.637 0 0017.863-13.42 32.911 32.911 0 001.815-7.26 42.97 42.97 0 00-.335-10.078 18.386 18.386 0 00-14.328-15.474zM141.923 60.8c0-.621-.478-21.54-.382-29.899v-6.543l1.385-.334a9.935 9.935 0 012.818 0 4.776 4.776 0 012.961.668 14.332 14.332 0 016.161 10.89 52.528 52.528 0 010 10.46 22.978 22.978 0 01-5.54 13.707 6.643 6.643 0 01-3.391 1.72 8.502 8.502 0 01-2.914 0c-.907 0-.907-.287-.907-.67h-.191z"/></mask><path d="M24.001 6.066h5.445a18.34 18.34 0 019.791 1.241 17.337 17.337 0 017.833 10.46c.812 2.293.812 2.293 2.77 1.48h1.528V1.1H.121v3.2h2.101a6.113 6.113 0 014.776 2.244c1.959 3.152 2.293 6.687 2.293 25.075 0 19.534-.43 24.31-2.293 26.746a5.158 5.158 0 01-3.964 2.101c-2.913.526-2.913.478-2.913 1.767a1.91 1.91 0 000 1.338h32.334a3.009 3.009 0 000-2.723 16.477 16.477 0 00-2.388-.477 15.952 15.952 0 01-2.58-.526 8.597 8.597 0 01-3.486-7.785c-.477-3.152-.716-8.931-.716-13.707V34.58h1.91c2.38-.073 4.76.184 7.069.764a8.837 8.837 0 014.107 6.304l.43 1.481h2.914V21.97H37.04l-.43 2.054a8.502 8.502 0 01-4.346 6.304 7.974 7.974 0 01-3.487.239h-5.492v-5.158c0-5.35.286-16.621.477-18.388l.24-.955zM247.522 43.94a17.34 17.34 0 00-9.886-7.498 23.88 23.88 0 01-8.55-4.777 4.771 4.771 0 01-1.385-4.25 5.684 5.684 0 011.672-4.012 5.78 5.78 0 015.731-1.576 12.034 12.034 0 018.454 8.979c.764 2.149.86 2.149 2.245 1.576l.859-.334V20.154l-.621-.287a36.915 36.915 0 00-14.662-2.005 17.195 17.195 0 00-11.463 4.776 13.192 13.192 0 00-4.155 10.316 11.319 11.319 0 003.248 7.833 19.391 19.391 0 008.119 4.776c7.403 2.913 9.552 4.776 9.552 8.167a6.301 6.301 0 01-4.776 6.257 11.793 11.793 0 01-5.062 0 14.712 14.712 0 01-8.932-10.078l-.621-1.528h-.859c-.411.03-.814.127-1.194.286h-.478v13.564h.812a49.253 49.253 0 009.934 2.197h4.776a18.72 18.72 0 006.161-.573 14.852 14.852 0 0011.272-9.552 11.09 11.09 0 00.86-4.298 11.89 11.89 0 00-1.051-6.066zm-44.991-24.692a22.016 22.016 0 00-18.006.43 20.97 20.97 0 00-10.937 13.038 25.49 25.49 0 00-1.289 9.552 25.998 25.998 0 00.43 5.254 21.203 21.203 0 0017.146 17.098c2.775.35 5.583.35 8.358 0a22.93 22.93 0 008.119-3.104 14.33 14.33 0 005.063-4.776 2.396 2.396 0 00-1.146-1.48c-.546.197-1.06.47-1.529.811a13.66 13.66 0 01-8.024 2.245 12.75 12.75 0 01-10.173-4.012 11.414 11.414 0 01-2.435-3.248 22.205 22.205 0 01-2.341-9.552v-1.862h26.46v-.956a23.62 23.62 0 000-2.865 19.11 19.11 0 00-9.696-16.573zm-13.325 16.525h-3.343v-2.818c1.098-7.212 3.821-11.51 7.164-11.51 3.343 0 4.776 4.25 5.397 12.035v2.197h-2.866l-6.352.096zm-68.68-18.102a10.03 10.03 0 00-4.776 1.003 16.001 16.001 0 00-7.403 7.403l-.621 1.147v-9.552h-.239c-.573 0-18.244 3.534-18.818 3.773-.573.238-.382.286-.382 1.146 0 .86 0 1.003.382 1.05l1.863.383a3.44 3.44 0 012.675 1.385c1.194 1.576 1.433 4.346 1.433 16.143a92.232 92.232 0 01-.67 15.904 3.917 3.917 0 01-3.295 3.105l-1.623.334h-.621v1.337c-.174.446-.174.94 0 1.386h26.698v-1.386a3.473 3.473 0 000-1.385 26.68 26.68 0 01-4.776-.62 4.77 4.77 0 01-2.531-4.777c-.383-2.77-.574-10.89-.478-17.098.095-6.209 0-6.591.525-7.02a8.596 8.596 0 015.588-1.768 12.46 12.46 0 015.445 1.385 7.147 7.147 0 001.863.716s4.776-11.558 4.776-12.083a5.634 5.634 0 00-5.015-1.91zm-32.19 20.06a21.444 21.444 0 00-9.84-17.003 24.836 24.836 0 00-22.352-.62 21.588 21.588 0 00-10.46 12.417 31.905 31.905 0 000 18.34c.942 3.27 2.7 6.245 5.111 8.645a19.39 19.39 0 0011.033 5.35 48.42 48.42 0 008.024 0c.982-.15 1.955-.358 2.913-.622a21.253 21.253 0 0015.236-16.955 41.74 41.74 0 00.334-9.552zm-19.87 23.88c-4.775 1.433-8.357-3.2-9.552-12.943a89.501 89.501 0 010-15.33c.956-7.834 3.392-11.798 7.165-11.798a4.777 4.777 0 014.012 1.767c3.2 3.2 4.776 9.552 4.776 19.105a35.393 35.393 0 01-2.484 15.856 7.26 7.26 0 01-3.916 3.105v.239zm85.97-42.984a15.909 15.909 0 00-4.06 0 18.05 18.05 0 00-7.498 1.624l-1.481.62V10.508c.259-3.497.259-7.01 0-10.507-.573 0-18.817 3.487-19.104 3.63a1.48 1.48 0 000 1.098c0 1.003 0 .956 2.149 1.433.604.135 1.183.36 1.72.669a5.88 5.88 0 011.767 3.295 54.63 54.63 0 01.525 10.985v41.934l1.29.287c1.91.43 7.307 1.337 9.074 1.528 3.529.28 7.075.28 10.603 0a21.637 21.637 0 0017.863-13.42 32.911 32.911 0 001.815-7.26 42.97 42.97 0 00-.335-10.078 18.386 18.386 0 00-14.328-15.474zM141.923 60.8c0-.621-.478-21.54-.382-29.899v-6.543l1.385-.334a9.935 9.935 0 012.818 0 4.776 4.776 0 012.961.668 14.332 14.332 0 016.161 10.89 52.528 52.528 0 010 10.46 22.978 22.978 0 01-5.54 13.707 6.643 6.643 0 01-3.391 1.72 8.502 8.502 0 01-2.914 0c-.907 0-.907-.287-.907-.67h-.191z" fill="#fff" stroke="#979797" stroke-width="1.669" mask="url(#a)"/></svg>