<svg width="339" height="42" fill="none" xmlns="http://www.w3.org/2000/svg"><path d="M316.538 23.363c.084-.096.177-.189.257-.286 1.654-2.04 1.793-4.524.379-6.796-.463-.74-1.036-1.389-1.671-1.986-.088-.085-.173-.165-.311-.295a12.62 12.62 0 013.244.926c1.78.774 3.291 1.885 4.356 3.539 1.022 1.586 1.397 3.35 1.372 5.214-.017 1.321-.244 2.61-.581 3.884a2.26 2.26 0 00-.046.194c0 .012.008.03.017.071a2.1 2.1 0 00.9-.618c.572-.64.85-1.414.964-2.243.088-.653.109-1.313.16-1.965-.009-.005.025.004.038.029 1.216 2.134 1.607 4.057.896 6.771-.572 2.239-2.382 5.113-6.325 5.462-2.555.14-3.926-.4-5.496-1.287-1.557-1.136-2.647-2.618-3.114-4.512a4.67 4.67 0 01.143-2.777c.467-1.288 1.123-2.453 2.032-3.485.724-.82 1.267-1.75 1.482-2.844a4.266 4.266 0 00-.005-1.696.247.247 0 01.013-.143c1.338 1.363 1.528 3.034 1.3 4.843" fill="#DF4D44"/></svg>