<svg width="186" height="22" fill="none" xmlns="http://www.w3.org/2000/svg"><path d="M173.44 12.63c.046-.053.097-.104.141-.157.91-1.123.986-2.488.209-3.738a5.564 5.564 0 00-.919-1.093l-.172-.162a6.946 6.946 0 011.785.51c.979.426 1.81 1.037 2.396 1.946.562.873.768 1.843.754 2.868-.009.727-.134 1.435-.319 2.136-.01.035-.019.07-.026.107 0 .007.005.016.009.04.2-.068.359-.188.496-.341.315-.352.467-.778.53-1.234.048-.359.06-.722.088-1.08-.005-.003.014.002.021.015.669 1.174.884 2.232.493 3.725-.315 1.231-1.31 2.812-3.479 3.004-1.405.076-2.16-.22-3.023-.708-.856-.625-1.456-1.44-1.713-2.482a2.574 2.574 0 01.079-1.527 5.891 5.891 0 011.118-1.917c.398-.45.697-.962.815-1.564.06-.313.062-.623-.003-.933a.144.144 0 01.007-.079c.736.75.84 1.67.715 2.664" fill="#DF4D44"/><path d="M5.958 5.044H0V.31h16.802v4.735h-5.958v16.649H5.955V5.044h.003zM29.724.309h7.027l7.332 21.384h-5.346l-1.375-4.277h-8.25l-1.374 4.277H22.39L29.724.309zm6.263 12.83L33.543 5.5h-.611l-2.444 7.638h5.499zM53.397.309h10.388c3.82 0 6.263 2.444 6.263 5.957a5.58 5.58 0 01-1.162 3.454 5.674 5.674 0 01-1.13 1.13v.152c.49.335.917.704 1.283 1.162.641.824 1.315 1.956 1.315 3.574 0 3.513-2.444 5.957-6.263 5.957H53.397V.31zm9.624 8.554c1.222 0 2.139-.916 2.139-2.138 0-1.223-.917-2.14-2.139-2.14h-4.735v4.278h4.735zm.306 8.555c1.222 0 2.138-.917 2.138-2.139 0-1.222-.916-2.138-2.138-2.138h-5.041v4.277h5.04zM85.93.309h7.028l7.332 21.384h-5.347l-1.374-4.277h-8.25l-1.374 4.277h-5.347L85.931.309zm6.264 12.83L89.75 5.5h-.611l-2.445 7.638h5.5zm20.773 1.526c0 1.71 1.375 3.055 3.972 3.055s3.666-1.069 3.666-2.291c0-1.07-.733-1.833-3.055-2.292l-3.361-.61c-3.819-.704-5.652-2.567-5.652-5.958 0-3.667 2.873-6.569 8.097-6.569 5.652 0 8.707 3.055 8.707 7.333h-4.888c0-1.68-1.405-3.056-3.819-3.056-2.169 0-3.208 1.07-3.208 2.292 0 1.07.611 1.62 2.597 1.986l3.36.61c4.278.765 6.111 2.598 6.111 6.264 0 3.666-2.903 6.569-8.555 6.569-5.652 0-8.86-3.208-8.86-7.333h4.888zm42.278-1.067c-.335 1.557-.916 2.962-1.74 4.215-1.375 2.108-3.88 4.184-8.034 4.184-5.775 0-10.388-4.552-10.388-10.998 0-6.447 4.613-10.997 10.385-10.997 4.125 0 6.569 2.046 7.974 4.125.824 1.222 1.405 2.596 1.803 4.124h-4.888a5.335 5.335 0 00-.947-1.74c-.734-.887-1.956-1.773-3.942-1.773-3.055 0-5.499 2.444-5.499 6.263s2.444 6.263 5.499 6.263c2.079 0 3.299-.886 4.002-1.833a5.09 5.09 0 00.887-1.833h4.888zM164.531 11c0-6.445 4.613-10.998 10.388-10.998 5.775 0 10.388 4.553 10.388 10.999 0 6.446-4.613 10.999-10.388 10.999-5.775 0-10.388-4.553-10.388-11zm15.885 0c0-3.818-2.444-6.262-5.499-6.262-3.055 0-5.5 2.444-5.5 6.263s2.445 6.263 5.5 6.263 5.499-2.444 5.499-6.263z" fill="#fff"/></svg>