<svg viewBox="0 0 24 24"  xmlns="http://www.w3.org/2000/svg" style="display:none">

	<symbol viewBox="0 0 16 22" id="main-decor-symbol">
		<path d="M5.53828 9.36337C5.62244 9.26658 5.71502 9.174 5.79498 9.0772C7.44884 7.03617 7.5877 4.55327 6.17371 2.28078C5.7108 1.54012 5.13848 0.892039 4.50302 0.294458C4.41465 0.210292 4.33049 0.130336 4.19161 -0.00012207C5.36573 0.172419 6.41779 0.483832 7.4362 0.925705C9.21632 1.70003 10.7271 2.81103 11.7918 4.46489C12.8144 6.05143 13.189 7.81471 13.1637 9.67899C13.1469 11.0004 12.9197 12.2881 12.583 13.5633C12.5662 13.6264 12.5493 13.6895 12.5367 13.7568C12.5367 13.7695 12.5451 13.7863 12.5535 13.8284C12.9154 13.7063 13.2058 13.4875 13.4541 13.2098C14.0264 12.5701 14.3042 11.7958 14.4178 10.9667C14.5062 10.3144 14.5272 9.65374 14.5777 9.00145C14.5693 8.99725 14.603 9.00566 14.6156 9.03091C15.8318 11.1645 16.2232 13.0877 15.512 15.8021C14.9396 18.0409 13.1301 20.9152 9.18688 21.2645C6.63243 21.4033 5.26052 20.8647 3.69082 19.9767C2.13375 18.8405 1.04378 17.3592 0.576662 15.4654C0.345205 14.5312 0.387299 13.6096 0.719756 12.6879C1.18688 11.4002 1.84336 10.2345 2.75235 9.20345C3.47618 8.38283 4.01906 7.4528 4.23369 6.35863C4.3431 5.79051 4.34731 5.2266 4.22947 4.66269C4.22106 4.61639 4.22107 4.5701 4.24211 4.5196C5.58035 5.8831 5.76971 7.5538 5.54246 9.36337" fill="currentColor"/>
	</symbol>

	<symbol viewBox="0 0 32 32" id="arrow-next">
		<path d="M24.3426 8.95227C24.0826 8.94727 23.8451 9.10227 23.7401 9.33977C23.6376 9.57977 23.6901 9.85727 23.8726 10.0423L28.9776 15.3598H1.2951C1.0651 15.3573 0.850097 15.4773 0.735098 15.6773C0.617598 15.8773 0.617598 16.1223 0.735098 16.3223C0.850097 16.5223 1.0651 16.6423 1.2951 16.6398H28.9776L23.8726 21.9573C23.6276 22.2123 23.6376 22.6173 23.8926 22.8623C24.1476 23.1073 24.5526 23.0998 24.7976 22.8423L31.3676 15.9998L24.7976 9.15727C24.6801 9.02977 24.5151 8.95727 24.3426 8.95227Z" fill="currentColor"/>
	</symbol>

	<symbol viewBox="0 0 40 41" id="back-to-top">
		<path d="M31.692 18.4427C31.634 18.5008 31.5651 18.5469 31.4892 18.5783C31.4133 18.6098 31.332 18.626 31.2499 18.626C31.1677 18.626 31.0864 18.6098 31.0105 18.5783C30.9346 18.5469 30.8657 18.5008 30.8077 18.4427L20.6249 8.25987V34.2505C20.6249 34.4163 20.559 34.5752 20.4418 34.6924C20.3246 34.8096 20.1656 34.8755 19.9999 34.8755C19.8341 34.8755 19.6751 34.8096 19.5579 34.6924C19.4407 34.5752 19.3749 34.4163 19.3749 34.2505V8.25987L9.19205 18.4427C9.13398 18.5007 9.06504 18.5468 8.98917 18.5782C8.9133 18.6097 8.83198 18.6258 8.74986 18.6258C8.66774 18.6258 8.58642 18.6097 8.51055 18.5782C8.43468 18.5468 8.36574 18.5007 8.30767 18.4427C8.2496 18.3846 8.20354 18.3157 8.17211 18.2398C8.14069 18.1639 8.12451 18.0826 8.12451 18.0005C8.12451 17.9184 8.14069 17.8371 8.17211 17.7612C8.20354 17.6853 8.2496 17.6164 8.30767 17.5583L19.5577 6.3083C19.6157 6.25019 19.6846 6.20409 19.7605 6.17264C19.8364 6.14119 19.9177 6.125 19.9999 6.125C20.082 6.125 20.1633 6.14119 20.2392 6.17264C20.3151 6.20409 20.384 6.25019 20.442 6.3083L31.692 17.5583C31.7502 17.6163 31.7963 17.6853 31.8277 17.7612C31.8592 17.837 31.8754 17.9184 31.8754 18.0005C31.8754 18.0826 31.8592 18.164 31.8277 18.2398C31.7963 18.3157 31.7502 18.3846 31.692 18.4427Z" fill="currentColor"/>
	</symbol>

	<symbol viewBox="0 0 25 24" id="close">
		<path d="M12.5 12.7087L7.25399 17.9547C7.16065 18.0481 7.04599 18.0981 6.90999 18.1047C6.77399 18.1114 6.65265 18.0614 6.54599 17.9547C6.43932 17.8481 6.38599 17.7301 6.38599 17.6007C6.38599 17.4714 6.43932 17.3534 6.54599 17.2467L11.792 12.0007L6.54599 6.75472C6.45265 6.66139 6.40265 6.54672 6.39599 6.41072C6.38932 6.27472 6.43932 6.15339 6.54599 6.04672C6.65265 5.94005 6.77065 5.88672 6.89999 5.88672C7.02932 5.88672 7.14732 5.94005 7.25399 6.04672L12.5 11.2927L17.746 6.04672C17.8393 5.95339 17.954 5.90339 18.09 5.89672C18.226 5.89005 18.3473 5.94005 18.454 6.04672C18.5607 6.15339 18.614 6.27139 18.614 6.40072C18.614 6.53005 18.5607 6.64805 18.454 6.75472L13.208 12.0007L18.454 17.2467C18.5473 17.3401 18.5973 17.4547 18.604 17.5907C18.6107 17.7267 18.5607 17.8481 18.454 17.9547C18.3473 18.0614 18.2293 18.1147 18.1 18.1147C17.9707 18.1147 17.8527 18.0614 17.746 17.9547L12.5 12.7087Z" fill="currentColor"/>
	</symbol>

	<symbol viewBox="0 0 64 65" id="smile-emoji-1">
		<path d="M32.0001 3.06055C15.7551 3.06055 2.56006 16.2556 2.56006 32.5005C2.56006 48.7455 15.7551 61.9405 32.0001 61.9405C48.245 61.9405 61.4401 48.7455 61.4401 32.5005C61.4401 16.3249 48.3521 3.19251 32.2026 3.08055C32.1357 3.06852 32.068 3.06183 32.0001 3.06055ZM32.0001 5.62055C46.8617 5.62055 58.8801 17.6389 58.8801 32.5005C58.8801 47.3622 46.8617 59.3805 32.0001 59.3805C17.1384 59.3805 5.12006 47.3622 5.12006 32.5005C5.12006 17.6389 17.1384 5.62055 32.0001 5.62055ZM21.7601 23.5405C20.7416 23.5405 19.7649 23.9451 19.0448 24.6653C18.3246 25.3854 17.9201 26.3621 17.9201 27.3805C17.9201 28.399 18.3246 29.3757 19.0448 30.0958C19.7649 30.816 20.7416 31.2205 21.7601 31.2205C22.7785 31.2205 23.7552 30.816 24.4753 30.0958C25.1955 29.3757 25.6001 28.399 25.6001 27.3805C25.6001 26.3621 25.1955 25.3854 24.4753 24.6653C23.7552 23.9451 22.7785 23.5405 21.7601 23.5405ZM42.2401 26.1005C40.1778 26.1005 38.729 26.4475 37.7651 26.833C36.8011 27.2186 36.2151 27.7555 36.2151 27.7555C36.0922 27.8735 35.9941 28.0148 35.9266 28.1711C35.859 28.3274 35.8233 28.4956 35.8216 28.6659C35.8198 28.8362 35.8521 29.0052 35.9165 29.1628C35.9808 29.3205 36.076 29.4637 36.1964 29.5842C36.3169 29.7046 36.4601 29.7998 36.6178 29.8641C36.7754 29.9285 36.9444 29.9608 37.1147 29.959C37.285 29.9573 37.4532 29.9216 37.6095 29.854C37.7658 29.7865 37.9071 29.6884 38.0251 29.5655C38.0251 29.5655 38.079 29.4625 38.7151 29.208C39.3511 28.9536 40.4623 28.6605 42.2401 28.6605C45.5112 28.6605 47.7326 30.8455 47.7326 30.8455C47.8514 30.9646 47.9925 31.0591 48.1479 31.1236C48.3032 31.1881 48.4698 31.2214 48.638 31.2216C48.8062 31.2217 48.9728 31.1887 49.1283 31.1244C49.2838 31.0602 49.425 30.9659 49.5441 30.8471C49.6631 30.7282 49.7576 30.587 49.822 30.4317C49.8865 30.2763 49.9197 30.1097 49.9198 29.9415C49.9199 29.7733 49.8869 29.6067 49.8226 29.4512C49.7583 29.2958 49.664 29.1545 49.5451 29.0355C49.5451 29.0355 46.6489 26.1005 42.2401 26.1005ZM49.9176 35.0455C49.6881 35.0472 49.4633 35.1105 49.2667 35.2288C49.0701 35.3471 48.909 35.5161 48.8001 35.718C48.8001 35.718 42.6667 46.5805 32.0001 46.5805C26.1121 46.5805 22.6651 43.1155 22.6651 43.1155C22.5471 42.9927 22.4058 42.8946 22.2495 42.8271C22.0932 42.7595 21.925 42.7238 21.7547 42.7221C21.5844 42.7203 21.4154 42.7526 21.2578 42.817C21.1001 42.8813 20.9569 42.9765 20.8364 43.0969C20.716 43.2174 20.6208 43.3606 20.5565 43.5183C20.4921 43.6759 20.4598 43.8449 20.4616 44.0152C20.4633 44.1854 20.499 44.3537 20.5666 44.51C20.6341 44.6663 20.7322 44.8076 20.8551 44.9255C20.8551 44.9255 25.0881 49.1405 32.0001 49.1405C44.3734 49.1405 51.0401 36.963 51.0401 36.963C51.1523 36.7675 51.211 36.5457 51.21 36.3202C51.2091 36.0947 51.1486 35.8735 51.0347 35.6789C50.9207 35.4843 50.7574 35.3232 50.5613 35.212C50.3651 35.1008 50.143 35.0434 49.9176 35.0455Z" fill="currentColor"/>
	</symbol>

	<symbol viewBox="0 0 64 65" id="smile-emoji-2">
		<path d="M32.0001 3.06055C15.7551 3.06055 2.56006 16.2556 2.56006 32.5005C2.56006 48.7455 15.7551 61.9405 32.0001 61.9405C48.245 61.9405 61.4401 48.7455 61.4401 32.5005C61.4401 16.3249 48.3521 3.19251 32.2026 3.08055C32.1357 3.06852 32.068 3.06183 32.0001 3.06055ZM32.0001 5.62055C46.8617 5.62055 58.8801 17.6389 58.8801 32.5005C58.8801 47.3622 46.8617 59.3805 32.0001 59.3805C17.1384 59.3805 5.12006 47.3622 5.12006 32.5005C5.12006 17.6389 17.1384 5.62055 32.0001 5.62055ZM18.2701 19.7005C15.2969 19.7005 12.8001 22.0413 12.8001 24.9705C12.8001 27.8096 14.5115 29.9421 16.3051 31.4705C18.0986 32.999 20.1071 34.1022 20.9651 34.783C21.1915 34.9629 21.4721 35.0608 21.7613 35.0608C22.0505 35.0608 22.3311 34.9629 22.5576 34.783C23.4143 34.1023 25.4214 32.9987 27.2151 31.4705C29.0087 29.9424 30.7201 27.8097 30.7201 24.9705C30.7201 22.0413 28.2232 19.7005 25.2501 19.7005C24.0872 19.7005 23.1424 20.2624 22.4126 20.8805C22.1331 21.1172 21.9911 21.3648 21.7601 21.618C21.5291 21.3648 21.387 21.1172 21.1076 20.8805C20.3777 20.2624 19.4329 19.7005 18.2701 19.7005ZM38.7501 19.7005C35.7769 19.7005 33.2801 22.0413 33.2801 24.9705C33.2801 27.8096 34.9915 29.9423 36.7851 31.4705C38.5786 32.9988 40.5874 34.1019 41.4451 34.783C41.6713 34.9623 41.9514 35.0598 42.2401 35.0598C42.5287 35.0598 42.8088 34.9623 43.0351 34.783C43.893 34.1022 45.9015 32.999 47.6951 31.4705C49.4886 29.9421 51.2001 27.8096 51.2001 24.9705C51.2001 22.0413 48.7032 19.7005 45.7301 19.7005C44.5672 19.7005 43.6224 20.2624 42.8926 20.8805C42.6131 21.1172 42.4711 21.3648 42.2401 21.618C42.0091 21.3648 41.867 21.1172 41.5876 20.8805C40.8577 20.2624 39.9129 19.7005 38.7501 19.7005ZM18.2701 22.2605C18.5638 22.2605 18.9888 22.4403 19.4526 22.833C19.9163 23.2258 20.3732 23.7896 20.7101 24.273C20.828 24.4422 20.9851 24.5803 21.1679 24.6757C21.3507 24.7711 21.5539 24.8209 21.7601 24.8209C21.9663 24.8209 22.1694 24.7711 22.3522 24.6757C22.535 24.5803 22.6921 24.4422 22.8101 24.273C23.1469 23.7896 23.6038 23.2258 24.0676 22.833C24.5313 22.4403 24.9563 22.2605 25.2501 22.2605C26.9054 22.2605 28.1601 23.4941 28.1601 24.9705C28.1601 26.7855 27.0779 28.2256 25.5551 29.523C24.2967 30.5952 22.9305 31.3946 21.7601 32.213C20.5894 31.395 19.2237 30.5956 17.9651 29.523C16.4425 28.2256 15.3601 26.7856 15.3601 24.9705C15.3601 23.4941 16.6147 22.2605 18.2701 22.2605ZM38.7501 22.2605C39.0438 22.2605 39.4688 22.4403 39.9326 22.833C40.3963 23.2258 40.8532 23.7896 41.1901 24.273C41.308 24.4422 41.4651 24.5803 41.6479 24.6757C41.8307 24.7711 42.0339 24.8209 42.2401 24.8209C42.4463 24.8209 42.6494 24.7711 42.8322 24.6757C43.015 24.5803 43.1721 24.4422 43.2901 24.273C43.6269 23.7896 44.0838 23.2258 44.5476 22.833C45.0113 22.4403 45.4363 22.2605 45.7301 22.2605C47.3854 22.2605 48.6401 23.4941 48.6401 24.9705C48.6401 26.7856 47.5576 28.2256 46.0351 29.523C44.7764 30.5956 43.4107 31.395 42.2401 32.213C41.0692 31.3945 39.7038 30.5955 38.4451 29.523C36.9225 28.2257 35.8401 26.7856 35.8401 24.9705C35.8401 23.4941 37.0947 22.2605 38.7501 22.2605ZM15.3051 37.6055C15.0718 37.6132 14.8451 37.6845 14.6495 37.8117C14.4538 37.9389 14.2967 38.1172 14.195 38.3272C14.0933 38.5373 14.051 38.7711 14.0726 39.0035C14.0942 39.2358 14.1789 39.4578 14.3176 39.6455C14.3176 39.6455 21.0134 49.1405 32.0001 49.1405C42.9867 49.1405 49.6826 39.6455 49.6826 39.6455C49.8801 39.3691 49.9598 39.0254 49.904 38.6902C49.8482 38.355 49.6615 38.0556 49.3851 37.858C49.1086 37.6605 48.7649 37.5808 48.4297 37.6366C48.0945 37.6924 47.7951 37.8791 47.5976 38.1555C47.5976 38.1555 41.4934 46.5805 32.0001 46.5805C22.5067 46.5805 16.4026 38.1555 16.4026 38.1555C16.2804 37.9793 16.1158 37.8365 15.924 37.7404C15.7323 37.6443 15.5194 37.5979 15.3051 37.6055Z" fill="currentColor"/>	
	</symbol>

	<symbol viewBox="0 0 64 65" id="checklist">
		<path d="M32.0001 0C29.6351 0 27.7001 1.65 27.1201 3.84H11.5201C9.41505 3.84 7.68005 5.575 7.68005 7.68V57.6C7.68005 59.705 9.41505 61.44 11.5201 61.44H52.4801C54.5851 61.44 56.3201 59.705 56.3201 57.6V7.68C56.3201 5.575 54.5851 3.84 52.4801 3.84H41.0401C41.0151 3.84 40.9851 3.84 40.9601 3.84H36.8801C36.3001 1.65 34.3651 0 32.0001 0ZM32.0001 2.56C33.4301 2.56 34.5601 3.69 34.5601 5.12C34.5601 5.825 35.1351 6.4 35.8401 6.4H39.6801V8.96H24.3201V6.4H28.1601C28.8651 6.4 29.4401 5.825 29.4401 5.12C29.4401 3.69 30.5701 2.56 32.0001 2.56ZM11.5201 6.4H21.7601V10.24C21.7601 10.945 22.3351 11.52 23.0401 11.52H40.9601C41.6651 11.52 42.2401 10.945 42.2401 10.24V6.4H52.4801C53.2051 6.4 53.7601 6.955 53.7601 7.68V57.6C53.7601 58.325 53.2051 58.88 52.4801 58.88H11.5201C10.7951 58.88 10.2401 58.325 10.2401 57.6V7.68C10.2401 6.955 10.7951 6.4 11.5201 6.4ZM46.0801 21.68C46.0101 21.69 45.9451 21.7 45.8801 21.72C45.8551 21.73 45.8251 21.745 45.8001 21.76C45.4701 21.835 45.1801 22.035 45.0001 22.32L40.7601 28.68L38.0401 25.96C37.7751 25.675 37.3901 25.53 37.0001 25.56C36.9451 25.57 36.8901 25.585 36.8401 25.6C36.3601 25.685 35.9751 26.035 35.8401 26.5C35.7051 26.97 35.8451 27.47 36.2001 27.8L39.8801 31.48C39.9051 31.51 39.9301 31.535 39.9601 31.56L40.0401 31.64C40.0551 31.655 40.0651 31.665 40.0801 31.68C40.0951 31.695 40.1051 31.705 40.1201 31.72C40.1351 31.735 40.1451 31.745 40.1601 31.76C40.2101 31.79 40.2651 31.815 40.3201 31.84C40.3451 31.855 40.3751 31.87 40.4001 31.88C40.4251 31.895 40.4551 31.91 40.4801 31.92C40.4951 31.92 40.5051 31.92 40.5201 31.92C40.5451 31.935 40.5751 31.95 40.6001 31.96C40.6151 31.96 40.6251 31.96 40.6401 31.96C40.6651 31.975 40.6951 31.99 40.7201 32C40.7351 32 40.7451 32 40.7601 32C40.7851 32 40.8151 32 40.8401 32C40.8551 32 40.8651 32 40.8801 32C40.9601 32.005 41.0401 32.005 41.1201 32C41.1351 32 41.1451 32 41.1601 32C41.2551 31.985 41.3501 31.955 41.4401 31.92C41.4651 31.91 41.4951 31.895 41.5201 31.88C41.5601 31.87 41.6001 31.855 41.6401 31.84C41.6701 31.815 41.6951 31.79 41.7201 31.76C41.7451 31.75 41.7751 31.735 41.8001 31.72C41.8451 31.685 41.8851 31.645 41.9201 31.6C41.9501 31.56 41.9751 31.52 42.0001 31.48C42.0151 31.465 42.0251 31.455 42.0401 31.44L42.0801 31.4C42.0951 31.36 42.1101 31.32 42.1201 31.28L47.1601 23.76C47.4801 23.365 47.5351 22.82 47.3001 22.37C47.0651 21.915 46.5851 21.645 46.0801 21.68ZM17.5601 25.6C16.8551 25.7 16.3601 26.355 16.4601 27.06C16.5601 27.765 17.2151 28.26 17.9201 28.16H30.7201C31.1801 28.165 31.6101 27.925 31.8451 27.525C32.0751 27.125 32.0751 26.635 31.8451 26.235C31.6101 25.835 31.1801 25.595 30.7201 25.6H17.9201C17.8801 25.6 17.8401 25.6 17.8001 25.6C17.7601 25.6 17.7201 25.6 17.6801 25.6C17.6401 25.6 17.6001 25.6 17.5601 25.6ZM46.0801 38.32C46.0101 38.33 45.9451 38.34 45.8801 38.36C45.8551 38.37 45.8251 38.385 45.8001 38.4C45.4701 38.475 45.1801 38.675 45.0001 38.96L40.7601 45.32L38.0401 42.6C37.7751 42.315 37.3901 42.17 37.0001 42.2C36.9451 42.21 36.8901 42.225 36.8401 42.24C36.3601 42.325 35.9751 42.675 35.8401 43.14C35.7051 43.61 35.8451 44.11 36.2001 44.44L39.8801 48.12C39.9051 48.15 39.9301 48.175 39.9601 48.2L40.0401 48.28C40.0551 48.295 40.0651 48.305 40.0801 48.32C40.0951 48.335 40.1051 48.345 40.1201 48.36C40.1351 48.375 40.1451 48.385 40.1601 48.4C40.2101 48.43 40.2651 48.455 40.3201 48.48C40.3451 48.495 40.3751 48.51 40.4001 48.52C40.4251 48.535 40.4551 48.55 40.4801 48.56C40.4951 48.56 40.5051 48.56 40.5201 48.56C40.5451 48.575 40.5751 48.59 40.6001 48.6C40.6151 48.6 40.6251 48.6 40.6401 48.6C40.6651 48.615 40.6951 48.63 40.7201 48.64C40.7351 48.64 40.7451 48.64 40.7601 48.64C40.7851 48.64 40.8151 48.64 40.8401 48.64C40.8551 48.64 40.8651 48.64 40.8801 48.64C40.9601 48.645 41.0401 48.645 41.1201 48.64C41.1351 48.64 41.1451 48.64 41.1601 48.64C41.2551 48.625 41.3501 48.595 41.4401 48.56C41.4651 48.55 41.4951 48.535 41.5201 48.52C41.5601 48.51 41.6001 48.495 41.6401 48.48C41.6701 48.455 41.6951 48.43 41.7201 48.4C41.7451 48.39 41.7751 48.375 41.8001 48.36C41.8451 48.325 41.8851 48.285 41.9201 48.24C41.9501 48.2 41.9751 48.16 42.0001 48.12C42.0151 48.105 42.0251 48.095 42.0401 48.08L42.0801 48.04C42.0951 48 42.1101 47.96 42.1201 47.92L47.1601 40.4C47.4801 40.005 47.5351 39.46 47.3001 39.01C47.0651 38.555 46.5851 38.285 46.0801 38.32ZM17.5601 42.24C16.8551 42.34 16.3601 42.995 16.4601 43.7C16.5601 44.405 17.2151 44.9 17.9201 44.8H30.7201C31.1801 44.805 31.6101 44.565 31.8451 44.165C32.0751 43.765 32.0751 43.275 31.8451 42.875C31.6101 42.475 31.1801 42.235 30.7201 42.24H17.9201C17.8801 42.24 17.8401 42.24 17.8001 42.24C17.7601 42.24 17.7201 42.24 17.6801 42.24C17.6401 42.24 17.6001 42.24 17.5601 42.24Z" fill="currentColor"/>
	</symbol>

	<symbol viewBox="0 0 64 64" id="message">
		<path d="M32 5.21094C15.83 5.21094 2.65002 16.5409 2.65002 30.7209C2.65002 38.9509 7.16003 46.1159 14.085 50.8009C14.075 51.0759 14.095 51.5209 13.735 52.8609C13.285 54.5159 12.38 56.8509 10.545 59.4809L9.24002 61.3509H11.52C19.42 61.3509 23.99 56.2009 24.7 55.3759C27.05 55.9259 29.47 56.2309 32 56.2309C48.17 56.2309 61.35 44.9009 61.35 30.7209C61.35 16.5409 48.17 5.21094 32 5.21094ZM32 7.59094C47.065 7.59094 58.97 18.0209 58.97 30.7209C58.97 43.4209 47.065 53.8509 32 53.8509C29.39 53.8509 26.93 53.6009 24.62 52.9959L23.88 52.8009L23.395 53.3959C23.395 53.3959 19.7 57.5659 13.8 58.5709C14.87 56.6409 15.66 54.8409 16.025 53.4809C16.54 51.5859 16.55 50.3059 16.55 50.3059V49.6509L16 49.3009C9.24002 45.0009 5.03002 38.3459 5.03002 30.7209C5.03002 18.0209 16.935 7.59094 32 7.59094ZM19.2 28.1609C17.785 28.1609 16.64 29.3059 16.64 30.7209C16.64 32.1359 17.785 33.2809 19.2 33.2809C20.615 33.2809 21.76 32.1359 21.76 30.7209C21.76 29.3059 20.615 28.1609 19.2 28.1609ZM32 28.1609C30.585 28.1609 29.44 29.3059 29.44 30.7209C29.44 32.1359 30.585 33.2809 32 33.2809C33.415 33.2809 34.56 32.1359 34.56 30.7209C34.56 29.3059 33.415 28.1609 32 28.1609ZM44.8 28.1609C43.385 28.1609 42.24 29.3059 42.24 30.7209C42.24 32.1359 43.385 33.2809 44.8 33.2809C46.215 33.2809 47.36 32.1359 47.36 30.7209C47.36 29.3059 46.215 28.1609 44.8 28.1609Z" fill="currentColor"/>
	</symbol>

</svg>