<svg width="185" height="184" viewBox="0 0 185 184" fill="none" xmlns="http://www.w3.org/2000/svg">
<path d="M92.4425 25.7024C92.2125 25.7168 91.9968 25.7311 91.7668 25.7886C76.3281 25.918 61.8668 30.1874 49.4325 37.5474C49.1306 37.6768 48.8431 37.8493 48.57 38.0505C35.9343 45.7411 25.4837 56.6805 18.325 69.6755C18.1381 69.9343 17.98 70.2074 17.865 70.5093C11.5975 82.1962 8.0037 95.5218 7.8887 109.652C7.78808 110.141 7.78808 110.63 7.8887 111.104C8.0037 126.658 11.8849 140.314 19.4318 152.835C20.3087 154.287 22.0768 154.948 23.7012 154.431C25.3256 153.913 26.3893 152.346 26.26 150.65L26.4324 152.907L40.2468 144.9C41.4256 144.267 42.1587 143.046 42.1587 141.709C42.1731 140.372 41.4543 139.136 40.29 138.474C39.1256 137.813 37.7024 137.842 36.5525 138.532L24.2762 145.647C19.0437 135.959 15.8812 125.796 15.335 114.08H29.9399C31.2624 114.094 32.4987 113.404 33.1743 112.254C33.8356 111.104 33.8356 109.696 33.1743 108.546C32.4987 107.396 31.2624 106.706 29.9399 106.72H15.335C15.8381 96.0536 18.5406 85.9911 22.9249 76.8918C24.9949 78.013 28.3012 79.7955 35.7331 83.8349C36.8974 84.4962 38.3206 84.4818 39.4706 83.7918C40.6062 83.1018 41.2962 81.8368 41.2387 80.5143C41.1956 79.1774 40.4337 77.9699 39.2406 77.3518C31.8087 73.3268 28.5168 71.5443 26.4324 70.423C32.3262 60.7199 40.2037 52.3824 49.6193 46.1005L57.195 58.7074C57.8562 59.843 59.0925 60.5474 60.415 60.533C61.7518 60.5043 62.9593 59.7855 63.6062 58.6211C64.2387 57.4568 64.1956 56.0336 63.5056 54.9124L55.93 42.3055C65.8056 37.0011 76.9606 33.7955 88.82 33.2349V47.8399C88.8056 49.1624 89.4956 50.3986 90.6456 51.0743C91.7956 51.7355 93.2043 51.7355 94.3543 51.0743C95.5043 50.3986 96.1943 49.1624 96.18 47.8399V33.2349C106.846 33.738 116.937 36.383 126.037 40.7674L119.065 53.633C118.404 54.7974 118.418 56.2205 119.108 57.3705C119.798 58.5061 121.063 59.1961 122.386 59.1386C123.722 59.0955 124.93 58.3336 125.548 57.1405L132.506 44.2893C142.209 50.1686 150.517 58.1036 156.799 67.5193L144.192 75.0949C143.057 75.7561 142.352 76.9924 142.367 78.3149C142.396 79.6518 143.114 80.8593 144.279 81.5061C145.443 82.1386 146.866 82.0955 147.987 81.4055L160.594 73.8299C165.899 83.7055 169.104 94.8605 169.665 106.72H155.06C153.737 106.706 152.501 107.396 151.826 108.546C151.164 109.696 151.164 111.104 151.826 112.254C152.501 113.404 153.737 114.094 155.06 114.08H169.665C169.119 125.796 165.956 135.959 160.738 145.647L148.447 138.532C147.297 137.842 145.874 137.813 144.71 138.474C143.546 139.136 142.827 140.372 142.841 141.709C142.841 143.046 143.574 144.267 144.753 144.9L158.567 152.907L158.74 150.65C158.611 152.346 159.674 153.913 161.299 154.431C162.923 154.948 164.691 154.287 165.568 152.835C173.115 140.329 176.996 126.672 177.126 111.147C177.212 110.659 177.212 110.156 177.126 109.681C176.982 94.2136 172.698 79.7236 165.309 67.2893C165.209 67.0161 165.065 66.7718 164.892 66.5274C164.878 66.5274 164.878 66.5274 164.878 66.5274C164.878 66.513 164.864 66.513 164.849 66.4986C157.173 53.8774 146.262 43.4411 133.296 36.2824C132.98 36.038 132.635 35.8655 132.276 35.7361C120.603 29.4974 107.321 25.9036 93.2043 25.7886C92.96 25.7311 92.7012 25.7024 92.4425 25.7024ZM135.036 81.6211C134.331 81.6068 133.641 81.7936 133.037 82.1674L99.515 101.976C97.6031 100.366 95.1737 99.3599 92.5 99.3599C86.4481 99.3599 81.46 104.348 81.46 110.4C81.46 116.452 86.4481 121.44 92.5 121.44C98.5518 121.44 103.54 116.452 103.54 110.4C103.54 109.681 103.454 108.962 103.324 108.272L136.775 88.4924C138.212 87.673 138.917 85.9911 138.514 84.3955C138.112 82.7999 136.689 81.6643 135.036 81.6211ZM92.5 106.72C93.6643 106.72 94.6418 107.252 95.3031 108.057C95.4468 108.445 95.6625 108.79 95.9356 109.106C96.0793 109.509 96.18 109.94 96.18 110.4C96.18 112.47 94.57 114.08 92.5 114.08C90.43 114.08 88.82 112.47 88.82 110.4C88.82 108.33 90.43 106.72 92.5 106.72ZM70.42 139.84C69.0975 139.826 67.8612 140.516 67.1856 141.666C66.5243 142.816 66.5243 144.224 67.1856 145.374C67.8612 146.524 69.0975 147.214 70.42 147.2H114.58C115.902 147.214 117.139 146.524 117.814 145.374C118.476 144.224 118.476 142.816 117.814 141.666C117.139 140.516 115.902 139.826 114.58 139.84H70.42Z" fill="white"/>
</svg>
