<svg width="185" height="184" viewBox="0 0 185 184" fill="none" xmlns="http://www.w3.org/2000/svg">
<path d="M55.6999 10.9252C55.5849 10.9539 55.4699 10.997 55.3549 11.0402H54.0899L53.6299 11.6152C53.5436 11.687 53.4718 11.7589 53.3999 11.8452L53.2849 11.9602C53.213 11.9889 53.1268 12.032 53.0549 12.0752V12.1902C52.8824 12.3339 52.7386 12.4777 52.5949 12.6502L4.06488 63.7102L1.87988 66.0102L3.83488 68.5402L88.7049 177.79C88.9493 178.983 89.7686 179.961 90.8899 180.435L92.4999 182.62L94.2249 180.32C95.303 179.817 96.0649 178.84 96.2949 177.675C96.2949 177.632 96.2949 177.603 96.2949 177.56L181.165 68.5402L183.12 66.0102L180.935 63.7102L132.52 12.8802C132.448 12.7939 132.376 12.722 132.29 12.6502V12.5352C132.189 12.4058 132.074 12.2908 131.945 12.1902L131.83 11.9602C131.657 11.7877 131.456 11.6295 131.255 11.5002L130.91 11.0402H129.875C129.645 10.9827 129.415 10.9395 129.185 10.9252C128.955 10.9395 128.725 10.9827 128.495 11.0402H56.0449C55.9299 10.997 55.8149 10.9539 55.6999 10.9252ZM58.6899 18.4002H84.1049L50.9849 54.1652L58.6899 18.4002ZM100.895 18.4002H126.31L134.015 54.0502L100.895 18.4002ZM92.4999 20.1252L131.945 62.5602H52.9399L92.4999 20.1252ZM135.625 26.6802L169.665 62.5602H143.215L135.625 26.6802ZM49.3749 26.7952L41.6699 62.5602H15.3349L49.3749 26.7952ZM14.2999 69.9202H42.2449L77.6649 151.57L14.2999 69.9202ZM50.1799 69.9202H134.82L92.4999 167.44L50.1799 69.9202ZM142.64 69.9202H170.7L107.335 151.57L142.64 69.9202Z" fill="white"/>
</svg>
