<svg width="185" height="184" viewBox="0 0 185 184" fill="none" xmlns="http://www.w3.org/2000/svg">
<path d="M151.38 7.35986C137.197 7.35986 125.62 18.9366 125.62 33.1199C125.62 39.9021 128.286 46.0696 132.599 50.6789L101.793 88.3199H59.0853C57.2851 75.8724 46.5509 66.2399 33.62 66.2399C19.4367 66.2399 7.85999 77.8166 7.85999 91.9999C7.85999 106.183 19.4367 117.76 33.62 117.76C46.5509 117.76 57.2851 108.127 59.0853 95.6799H101.707L131.269 134.837C127.742 139.246 125.62 144.82 125.62 150.88C125.62 165.063 137.197 176.64 151.38 176.64C165.563 176.64 177.14 165.063 177.14 150.88C177.14 136.697 165.563 125.12 151.38 125.12C145.916 125.12 140.852 126.854 136.674 129.777L108.219 92.0933L138.335 55.2789C142.169 57.5481 146.62 58.8799 151.38 58.8799C165.563 58.8799 177.14 47.3031 177.14 33.1199C177.14 18.9366 165.563 7.35986 151.38 7.35986ZM151.38 14.7199C161.586 14.7199 169.78 22.9142 169.78 33.1199C169.78 43.3255 161.586 51.5199 151.38 51.5199C141.174 51.5199 132.98 43.3255 132.98 33.1199C132.98 22.9142 141.174 14.7199 151.38 14.7199ZM33.62 73.5999C43.8256 73.5999 52.02 81.7942 52.02 91.9999C52.02 102.205 43.8256 110.4 33.62 110.4C23.4144 110.4 15.22 102.205 15.22 91.9999C15.22 81.7942 23.4144 73.5999 33.62 73.5999ZM151.38 132.48C161.586 132.48 169.78 140.674 169.78 150.88C169.78 161.085 161.586 169.28 151.38 169.28C141.174 169.28 132.98 161.085 132.98 150.88C132.98 140.674 141.174 132.48 151.38 132.48Z" fill="white"/>
</svg>
