<svg width="185" height="184" viewBox="0 0 185 184" fill="none" xmlns="http://www.w3.org/2000/svg">
<path d="M74.0999 14.7178C55.9011 14.7178 40.9799 29.639 40.9799 47.8378V130.868L21.5449 111.433L16.2549 116.723L42.0149 142.483L44.6599 145.013L47.3049 142.483L73.0649 116.723L67.7749 111.433L48.3399 130.868V47.8378C48.3399 33.6496 59.9118 22.0778 74.0999 22.0778H114.58V14.7178H74.0999ZM140.34 38.9828L137.695 41.5128L111.935 67.2728L117.225 72.5628L136.66 53.1278V136.158C136.66 150.346 125.088 161.918 110.9 161.918H70.4199V169.278H110.9C129.099 169.278 144.02 154.357 144.02 136.158V53.1278L163.455 72.5628L168.745 67.2728L142.985 41.5128L140.34 38.9828Z" fill="white"/>
</svg>
