<svg width="249" height="83" viewBox="0 0 249 83" fill="none" xmlns="http://www.w3.org/2000/svg">
<mask id="path-1-inside-1_477_2099" fill="white">
<path d="M24.0013 6.06563H29.446C32.7618 5.57715 36.1481 6.00662 39.237 7.30741C43.1122 9.63889 45.923 13.3923 47.0697 17.767C47.8817 20.0596 47.8817 20.0596 49.8399 19.2476H51.3682V1.0985H0.120836V4.29848H2.22231C3.13552 4.29215 4.03855 4.4905 4.86505 4.87896C5.69155 5.26741 6.42051 5.8361 6.9984 6.54324C8.95659 9.69545 9.29092 13.2298 9.29092 31.6177C9.29092 51.1519 8.86107 55.928 6.9984 58.3638C6.53855 58.99 5.9432 59.5042 5.25678 59.8681C4.57036 60.232 3.81061 60.4361 3.03425 60.4652C0.120836 60.9906 0.120836 60.9428 0.120836 62.2324C-0.0402785 62.6636 -0.0402785 63.1385 0.120836 63.5697H32.4549C32.6689 63.1479 32.7804 62.6815 32.7804 62.2085C32.7804 61.7355 32.6689 61.2692 32.4549 60.8473C31.6718 60.6294 30.8736 60.4698 30.0669 60.3697C29.1942 60.2659 28.3316 60.0902 27.4878 59.8443C26.2795 58.9622 25.3224 57.7801 24.7109 56.4148C24.0994 55.0494 23.8548 53.5481 24.0013 52.0593C23.5236 48.9071 23.2848 43.128 23.2848 38.352V34.5789H25.1953C27.5755 34.506 29.9543 34.7632 32.2639 35.343C33.3703 36.0268 34.3122 36.9464 35.0222 38.0362C35.7322 39.126 36.1929 40.3591 36.3713 41.6475L36.8012 43.128H39.7146V21.97H37.04L36.6101 24.0237C36.4293 25.3413 35.9418 26.598 35.187 27.693C34.4322 28.7879 33.431 29.6905 32.2639 30.3281C31.1336 30.6645 29.9429 30.7461 28.7773 30.5669H23.2848V25.4088C23.2848 20.0596 23.5714 8.788 23.7625 7.02084L24.0013 6.06563ZM247.522 43.94C245.264 40.3064 241.743 37.6357 237.636 36.4415C234.486 35.4572 231.576 33.831 229.086 31.6654C228.526 31.1237 228.107 30.4531 227.866 29.7122C227.624 28.9712 227.568 28.1825 227.701 27.4147C227.705 25.9088 228.306 24.4658 229.373 23.4028C230.096 22.6456 231.011 22.099 232.02 21.8214C233.03 21.5438 234.096 21.5457 235.104 21.8267C237.192 22.4218 239.08 23.5705 240.568 25.1512C242.057 26.7319 243.09 28.6858 243.558 30.8057C244.322 32.955 244.418 32.955 245.803 32.3819L246.662 32.0475V20.1551L246.041 19.8685C241.339 18.2171 236.352 17.5347 231.379 17.8626C227.096 17.9711 223.009 19.6743 219.916 22.6386C218.514 23.9515 217.415 25.5551 216.697 27.3371C215.98 29.1192 215.66 31.0365 215.761 32.955C215.788 35.8881 216.952 38.6963 219.009 40.7878C221.282 43.023 224.07 44.6634 227.128 45.5639C234.531 48.4773 236.68 50.3399 236.68 53.731C236.712 55.161 236.257 56.5593 235.389 57.6962C234.521 58.8332 233.292 59.6412 231.904 59.9876C230.237 60.354 228.509 60.354 226.842 59.9876C224.658 59.1402 222.709 57.7836 221.155 56.0308C219.602 54.278 218.489 52.1795 217.91 49.9101L217.289 48.3817H216.43C216.019 48.4123 215.616 48.509 215.236 48.6683H214.758V62.2324H215.57C218.797 63.3058 222.126 64.042 225.504 64.4294H230.28C232.352 64.5814 234.434 64.3877 236.441 63.8563C238.99 63.3859 241.372 62.2568 243.349 60.581C245.327 58.9053 246.831 56.7413 247.713 54.3041C248.283 52.9428 248.575 51.4814 248.573 50.0056C248.761 47.9266 248.399 45.8346 247.522 43.94ZM202.531 19.2476C199.669 18.046 196.586 17.4631 193.482 17.5372C190.379 17.6113 187.327 18.3407 184.525 19.6775C181.892 20.9655 179.558 22.7914 177.674 25.0372C175.791 27.2831 174.399 29.899 173.588 32.7162C172.555 35.7893 172.117 39.0313 172.299 42.2683C172.264 44.0296 172.408 45.7898 172.729 47.522C173.5 51.7814 175.556 55.7027 178.621 58.7592C181.686 61.8157 185.613 63.861 189.875 64.6204C192.65 64.9701 195.458 64.9701 198.233 64.6204C201.112 64.1129 203.868 63.0591 206.352 61.516C208.407 60.3642 210.145 58.7238 211.415 56.7399C211.333 56.4286 211.19 56.137 210.993 55.8826C210.796 55.6281 210.549 55.4161 210.269 55.2593C209.723 55.4567 209.209 55.73 208.74 56.0712C206.365 57.6368 203.559 58.4216 200.716 58.316C198.829 58.4436 196.937 58.1497 195.178 57.4559C193.418 56.762 191.835 55.6854 190.543 54.3041C189.544 53.3757 188.719 52.2758 188.108 51.0563C186.623 48.0872 185.824 44.8231 185.767 41.5042V39.6415H212.227V38.6863C212.285 37.732 212.285 36.775 212.227 35.8206C212.217 32.4483 211.315 29.1385 209.612 26.2276C207.909 23.3167 205.466 20.9085 202.531 19.2476ZM189.206 35.7729H185.863V32.955C186.961 25.7431 189.684 21.4446 193.027 21.4446C196.37 21.4446 197.803 25.6953 198.424 33.4804V35.6774H195.558L189.206 35.7729ZM120.526 17.6715C118.876 17.6075 117.235 17.952 115.75 18.6745C112.522 20.2421 109.915 22.8494 108.347 26.0774L107.726 27.2237V17.6715H107.487C106.914 17.6715 89.2426 21.2058 88.6694 21.4446C88.0963 21.6834 88.2874 21.7312 88.2874 22.5909C88.2874 23.4506 88.2874 23.5939 88.6694 23.6416L90.5321 24.0237C91.0538 24.0365 91.5657 24.1679 92.0291 24.4078C92.4925 24.6478 92.8952 24.9901 93.2067 25.4088C94.4007 26.9849 94.6396 29.755 94.6396 41.5519C94.8755 46.8628 94.6517 52.184 93.9709 57.4563C93.8106 58.2513 93.4075 58.9769 92.8172 59.533C92.2269 60.0891 91.4785 60.4482 90.6754 60.5608L89.0515 60.8951H88.4306V62.2324C88.2574 62.6778 88.2574 63.172 88.4306 63.6175H115.129V62.2324C115.222 61.7753 115.222 61.3044 115.129 60.8473C113.521 60.7847 111.923 60.5769 110.353 60.2264C109.498 59.7792 108.798 59.0835 108.347 58.2309C107.895 57.3784 107.712 56.409 107.822 55.4503C107.439 52.6802 107.248 44.5609 107.344 38.352C107.439 32.1431 107.344 31.761 107.869 31.3311C109.467 30.1057 111.445 29.4803 113.457 29.564C115.354 29.6053 117.216 30.079 118.902 30.949C119.486 31.2736 120.113 31.5147 120.765 31.6654C120.765 31.6654 125.541 20.1073 125.541 19.5819C124.93 18.8717 124.151 18.3251 123.275 17.9915C122.4 17.6579 121.455 17.548 120.526 17.6715ZM88.3351 37.7311C88.1684 34.3181 87.1886 30.9944 85.4771 28.0368C83.7657 25.0792 81.3724 22.5735 78.4964 20.7282C75.0786 18.8844 71.2761 17.8677 67.3942 17.7599C63.5123 17.6521 59.6592 18.4561 56.1443 20.1073C51.1747 22.7279 47.4226 27.1825 45.6847 32.5251C43.8897 38.5068 43.8897 44.8837 45.6847 50.8653C46.6257 54.1344 48.3845 57.1096 50.7951 59.51C53.7973 62.4395 57.6685 64.3164 61.8278 64.8592C64.4978 65.0825 67.1817 65.0825 69.8517 64.8592C70.8342 64.7097 71.807 64.5024 72.7651 64.2383C76.6526 63.1509 80.1501 60.9787 82.8482 57.9761C85.5464 54.9735 87.3336 51.2645 88.0008 47.2832C88.4776 44.1225 88.5898 40.9174 88.3351 37.7311ZM68.4666 61.6115C63.6905 63.0443 60.1085 58.4115 58.9144 48.6683C58.4759 43.5673 58.4759 38.4381 58.9144 33.3371C59.8697 25.5043 62.3055 21.5401 66.0786 21.5401C66.8398 21.493 67.6013 21.6288 68.2992 21.9362C68.9972 22.2437 69.6114 22.7138 70.0905 23.3073C73.2904 26.5073 74.8666 32.8595 74.8666 42.4116C75.2639 47.8176 74.4142 53.2426 72.383 58.2682C71.4861 59.7339 70.0983 60.834 68.4666 61.3727V61.6115ZM154.436 18.6267C153.088 18.4533 151.724 18.4533 150.376 18.6267C147.789 18.6245 145.232 19.1783 142.878 20.2506L141.397 20.8715V10.5074C141.656 7.0097 141.656 3.49768 141.397 0C140.824 0 122.58 3.48654 122.293 3.62982C122.152 3.98244 122.152 4.3757 122.293 4.72832C122.293 5.7313 122.293 5.68354 124.442 6.16115C125.046 6.29648 125.625 6.52189 126.162 6.8298C127.094 7.7065 127.714 8.86364 127.929 10.1253C128.473 13.76 128.649 17.4403 128.454 21.1103V63.0443L129.744 63.3309C131.654 63.7607 137.051 64.6682 138.818 64.8592C142.347 65.1399 145.893 65.1399 149.421 64.8592C153.338 64.4592 157.071 62.9979 160.219 60.633C163.367 58.268 165.809 55.089 167.284 51.4384C168.163 49.0954 168.772 46.6598 169.099 44.1788C169.383 40.8181 169.271 37.4357 168.764 34.1012C168.252 30.3636 166.602 26.8739 164.039 24.1057C161.476 21.3375 158.123 19.4247 154.436 18.6267ZM141.923 60.7996C141.923 60.1787 141.445 39.2594 141.541 30.9013V24.358L142.926 24.0237C143.86 23.8898 144.809 23.8898 145.744 24.0237C146.777 23.9186 147.817 24.1534 148.705 24.6924C150.488 25.9233 151.97 27.5429 153.037 29.4291C154.104 31.3153 154.729 33.419 154.866 35.5818C155.214 39.0597 155.214 42.5636 154.866 46.0415C154.58 51.0962 152.632 55.915 149.326 59.7488C148.387 60.6403 147.208 61.2379 145.935 61.4682C144.971 61.6359 143.985 61.6359 143.021 61.4682C142.114 61.4682 142.114 61.1816 142.114 60.7996H141.923Z"/>
</mask>
<path d="M24.0013 6.06563H29.446C32.7618 5.57715 36.1481 6.00662 39.237 7.30741C43.1122 9.63889 45.923 13.3923 47.0697 17.767C47.8817 20.0596 47.8817 20.0596 49.8399 19.2476H51.3682V1.0985H0.120836V4.29848H2.22231C3.13552 4.29215 4.03855 4.4905 4.86505 4.87896C5.69155 5.26741 6.42051 5.8361 6.9984 6.54324C8.95659 9.69545 9.29092 13.2298 9.29092 31.6177C9.29092 51.1519 8.86107 55.928 6.9984 58.3638C6.53855 58.99 5.9432 59.5042 5.25678 59.8681C4.57036 60.232 3.81061 60.4361 3.03425 60.4652C0.120836 60.9906 0.120836 60.9428 0.120836 62.2324C-0.0402785 62.6636 -0.0402785 63.1385 0.120836 63.5697H32.4549C32.6689 63.1479 32.7804 62.6815 32.7804 62.2085C32.7804 61.7355 32.6689 61.2692 32.4549 60.8473C31.6718 60.6294 30.8736 60.4698 30.0669 60.3697C29.1942 60.2659 28.3316 60.0902 27.4878 59.8443C26.2795 58.9622 25.3224 57.7801 24.7109 56.4148C24.0994 55.0494 23.8548 53.5481 24.0013 52.0593C23.5236 48.9071 23.2848 43.128 23.2848 38.352V34.5789H25.1953C27.5755 34.506 29.9543 34.7632 32.2639 35.343C33.3703 36.0268 34.3122 36.9464 35.0222 38.0362C35.7322 39.126 36.1929 40.3591 36.3713 41.6475L36.8012 43.128H39.7146V21.97H37.04L36.6101 24.0237C36.4293 25.3413 35.9418 26.598 35.187 27.693C34.4322 28.7879 33.431 29.6905 32.2639 30.3281C31.1336 30.6645 29.9429 30.7461 28.7773 30.5669H23.2848V25.4088C23.2848 20.0596 23.5714 8.788 23.7625 7.02084L24.0013 6.06563ZM247.522 43.94C245.264 40.3064 241.743 37.6357 237.636 36.4415C234.486 35.4572 231.576 33.831 229.086 31.6654C228.526 31.1237 228.107 30.4531 227.866 29.7122C227.624 28.9712 227.568 28.1825 227.701 27.4147C227.705 25.9088 228.306 24.4658 229.373 23.4028C230.096 22.6456 231.011 22.099 232.02 21.8214C233.03 21.5438 234.096 21.5457 235.104 21.8267C237.192 22.4218 239.08 23.5705 240.568 25.1512C242.057 26.7319 243.09 28.6858 243.558 30.8057C244.322 32.955 244.418 32.955 245.803 32.3819L246.662 32.0475V20.1551L246.041 19.8685C241.339 18.2171 236.352 17.5347 231.379 17.8626C227.096 17.9711 223.009 19.6743 219.916 22.6386C218.514 23.9515 217.415 25.5551 216.697 27.3371C215.98 29.1192 215.66 31.0365 215.761 32.955C215.788 35.8881 216.952 38.6963 219.009 40.7878C221.282 43.023 224.07 44.6634 227.128 45.5639C234.531 48.4773 236.68 50.3399 236.68 53.731C236.712 55.161 236.257 56.5593 235.389 57.6962C234.521 58.8332 233.292 59.6412 231.904 59.9876C230.237 60.354 228.509 60.354 226.842 59.9876C224.658 59.1402 222.709 57.7836 221.155 56.0308C219.602 54.278 218.489 52.1795 217.91 49.9101L217.289 48.3817H216.43C216.019 48.4123 215.616 48.509 215.236 48.6683H214.758V62.2324H215.57C218.797 63.3058 222.126 64.042 225.504 64.4294H230.28C232.352 64.5814 234.434 64.3877 236.441 63.8563C238.99 63.3859 241.372 62.2568 243.349 60.581C245.327 58.9053 246.831 56.7413 247.713 54.3041C248.283 52.9428 248.575 51.4814 248.573 50.0056C248.761 47.9266 248.399 45.8346 247.522 43.94ZM202.531 19.2476C199.669 18.046 196.586 17.4631 193.482 17.5372C190.379 17.6113 187.327 18.3407 184.525 19.6775C181.892 20.9655 179.558 22.7914 177.674 25.0372C175.791 27.2831 174.399 29.899 173.588 32.7162C172.555 35.7893 172.117 39.0313 172.299 42.2683C172.264 44.0296 172.408 45.7898 172.729 47.522C173.5 51.7814 175.556 55.7027 178.621 58.7592C181.686 61.8157 185.613 63.861 189.875 64.6204C192.65 64.9701 195.458 64.9701 198.233 64.6204C201.112 64.1129 203.868 63.0591 206.352 61.516C208.407 60.3642 210.145 58.7238 211.415 56.7399C211.333 56.4286 211.19 56.137 210.993 55.8826C210.796 55.6281 210.549 55.4161 210.269 55.2593C209.723 55.4567 209.209 55.73 208.74 56.0712C206.365 57.6368 203.559 58.4216 200.716 58.316C198.829 58.4436 196.937 58.1497 195.178 57.4559C193.418 56.762 191.835 55.6854 190.543 54.3041C189.544 53.3757 188.719 52.2758 188.108 51.0563C186.623 48.0872 185.824 44.8231 185.767 41.5042V39.6415H212.227V38.6863C212.285 37.732 212.285 36.775 212.227 35.8206C212.217 32.4483 211.315 29.1385 209.612 26.2276C207.909 23.3167 205.466 20.9085 202.531 19.2476ZM189.206 35.7729H185.863V32.955C186.961 25.7431 189.684 21.4446 193.027 21.4446C196.37 21.4446 197.803 25.6953 198.424 33.4804V35.6774H195.558L189.206 35.7729ZM120.526 17.6715C118.876 17.6075 117.235 17.952 115.75 18.6745C112.522 20.2421 109.915 22.8494 108.347 26.0774L107.726 27.2237V17.6715H107.487C106.914 17.6715 89.2426 21.2058 88.6694 21.4446C88.0963 21.6834 88.2874 21.7312 88.2874 22.5909C88.2874 23.4506 88.2874 23.5939 88.6694 23.6416L90.5321 24.0237C91.0538 24.0365 91.5657 24.1679 92.0291 24.4078C92.4925 24.6478 92.8952 24.9901 93.2067 25.4088C94.4007 26.9849 94.6396 29.755 94.6396 41.5519C94.8755 46.8628 94.6517 52.184 93.9709 57.4563C93.8106 58.2513 93.4075 58.9769 92.8172 59.533C92.2269 60.0891 91.4785 60.4482 90.6754 60.5608L89.0515 60.8951H88.4306V62.2324C88.2574 62.6778 88.2574 63.172 88.4306 63.6175H115.129V62.2324C115.222 61.7753 115.222 61.3044 115.129 60.8473C113.521 60.7847 111.923 60.5769 110.353 60.2264C109.498 59.7792 108.798 59.0835 108.347 58.2309C107.895 57.3784 107.712 56.409 107.822 55.4503C107.439 52.6802 107.248 44.5609 107.344 38.352C107.439 32.1431 107.344 31.761 107.869 31.3311C109.467 30.1057 111.445 29.4803 113.457 29.564C115.354 29.6053 117.216 30.079 118.902 30.949C119.486 31.2736 120.113 31.5147 120.765 31.6654C120.765 31.6654 125.541 20.1073 125.541 19.5819C124.93 18.8717 124.151 18.3251 123.275 17.9915C122.4 17.6579 121.455 17.548 120.526 17.6715ZM88.3351 37.7311C88.1684 34.3181 87.1886 30.9944 85.4771 28.0368C83.7657 25.0792 81.3724 22.5735 78.4964 20.7282C75.0786 18.8844 71.2761 17.8677 67.3942 17.7599C63.5123 17.6521 59.6592 18.4561 56.1443 20.1073C51.1747 22.7279 47.4226 27.1825 45.6847 32.5251C43.8897 38.5068 43.8897 44.8837 45.6847 50.8653C46.6257 54.1344 48.3845 57.1096 50.7951 59.51C53.7973 62.4395 57.6685 64.3164 61.8278 64.8592C64.4978 65.0825 67.1817 65.0825 69.8517 64.8592C70.8342 64.7097 71.807 64.5024 72.7651 64.2383C76.6526 63.1509 80.1501 60.9787 82.8482 57.9761C85.5464 54.9735 87.3336 51.2645 88.0008 47.2832C88.4776 44.1225 88.5898 40.9174 88.3351 37.7311ZM68.4666 61.6115C63.6905 63.0443 60.1085 58.4115 58.9144 48.6683C58.4759 43.5673 58.4759 38.4381 58.9144 33.3371C59.8697 25.5043 62.3055 21.5401 66.0786 21.5401C66.8398 21.493 67.6013 21.6288 68.2992 21.9362C68.9972 22.2437 69.6114 22.7138 70.0905 23.3073C73.2904 26.5073 74.8666 32.8595 74.8666 42.4116C75.2639 47.8176 74.4142 53.2426 72.383 58.2682C71.4861 59.7339 70.0983 60.834 68.4666 61.3727V61.6115ZM154.436 18.6267C153.088 18.4533 151.724 18.4533 150.376 18.6267C147.789 18.6245 145.232 19.1783 142.878 20.2506L141.397 20.8715V10.5074C141.656 7.0097 141.656 3.49768 141.397 0C140.824 0 122.58 3.48654 122.293 3.62982C122.152 3.98244 122.152 4.3757 122.293 4.72832C122.293 5.7313 122.293 5.68354 124.442 6.16115C125.046 6.29648 125.625 6.52189 126.162 6.8298C127.094 7.7065 127.714 8.86364 127.929 10.1253C128.473 13.76 128.649 17.4403 128.454 21.1103V63.0443L129.744 63.3309C131.654 63.7607 137.051 64.6682 138.818 64.8592C142.347 65.1399 145.893 65.1399 149.421 64.8592C153.338 64.4592 157.071 62.9979 160.219 60.633C163.367 58.268 165.809 55.089 167.284 51.4384C168.163 49.0954 168.772 46.6598 169.099 44.1788C169.383 40.8181 169.271 37.4357 168.764 34.1012C168.252 30.3636 166.602 26.8739 164.039 24.1057C161.476 21.3375 158.123 19.4247 154.436 18.6267ZM141.923 60.7996C141.923 60.1787 141.445 39.2594 141.541 30.9013V24.358L142.926 24.0237C143.86 23.8898 144.809 23.8898 145.744 24.0237C146.777 23.9186 147.817 24.1534 148.705 24.6924C150.488 25.9233 151.97 27.5429 153.037 29.4291C154.104 31.3153 154.729 33.419 154.866 35.5818C155.214 39.0597 155.214 42.5636 154.866 46.0415C154.58 51.0962 152.632 55.915 149.326 59.7488C148.387 60.6403 147.208 61.2379 145.935 61.4682C144.971 61.6359 143.985 61.6359 143.021 61.4682C142.114 61.4682 142.114 61.1816 142.114 60.7996H141.923Z" fill="white" stroke="#979797" stroke-width="1.66918" mask="url(#path-1-inside-1_477_2099)"/>
</svg>
