<svg width="250" height="84" viewBox="0 0 250 84" fill="none" xmlns="http://www.w3.org/2000/svg">
<mask id="path-1-inside-1_477_2102" fill="white">
<path d="M175.497 82.3017C171.582 81.0634 167.032 78.7843 166.385 77.7371C166.028 77.1591 168.039 69.6471 168.822 68.6367C168.918 68.5117 171.211 69.5786 173.917 71.0076C178.262 73.3026 179.458 73.5671 184.165 73.2747C188.727 72.9913 189.778 72.6134 191.468 70.6488C194.771 66.8087 193.82 62.0375 189.285 59.6923C186.193 58.0934 181.49 58.0869 176.257 59.6746C174.003 60.3582 171.901 60.9215 171.584 60.9265C171.268 60.9315 171.594 59.2191 172.309 57.1212L173.608 53.3068L170.883 50.6531C161.977 41.9817 165.248 27.0951 177.167 22.0559C179.757 20.9609 182.764 20.6739 190.577 20.7764C197.746 20.8705 201.685 20.5429 204.245 19.64C206.222 18.9422 208.127 18.3714 208.477 18.3714C208.827 18.3714 208.537 20.659 207.832 23.455L206.552 28.5385L203.335 28.2318C201.566 28.0631 200.119 28.0122 200.119 28.1187C200.119 28.2252 201.058 29.6959 202.205 31.3869C203.795 33.7293 204.292 35.5368 204.292 38.9768C204.292 44.2165 202.91 47.3244 199.188 50.4566L196.528 52.695L199.593 55.2213C203.661 58.5751 205.126 61.6349 205.126 66.7779C205.126 71.8384 203.747 74.7982 199.756 78.3028C194.447 82.9645 183.368 84.7913 175.499 82.3026L175.497 82.3017ZM188.772 47.4659C191.011 46.4457 193.441 42.1907 193.441 39.2913C193.441 36.4804 191.238 31.944 189.394 30.9568C180.279 26.079 172.25 39.6065 180.259 46.3458C182.939 48.6011 185.532 48.9421 188.772 47.4659ZM72.4297 64.8879C70.8266 64.3533 67.5727 62.0245 65.1989 59.713C59.965 54.6165 57.77 48.4869 58.4587 40.8913C59.869 25.3379 75.2048 16.0188 88.2502 22.7865L92.4537 24.9674V6.68652H104.973V65.1078H93.2883V60.1692L89.0596 62.7979C84.2964 65.7589 77.5749 66.6038 72.4297 64.8879ZM86.0811 53.9423C97.3222 49.2453 94.0413 31.7163 81.923 31.728C69.6119 31.7398 66.4688 48.8571 77.8485 53.9156C81.0757 55.3499 82.7008 55.3546 86.0811 53.9423ZM224.314 65.1625C218.576 63.417 213.424 59.0583 210.441 53.4232C209.284 51.2382 208.895 48.7144 208.899 43.4081C208.903 37.3595 209.227 35.6991 211.104 32.1411C213.703 27.2132 215.902 25.0655 220.944 22.5333C225.372 20.3088 233.188 20.0158 237.698 21.9053C244.763 24.865 249.6 32.7942 249.709 41.595L249.774 46.8754L235.377 46.7767C223.515 46.6953 220.981 46.8845 220.981 47.8517C220.981 50.0621 224.337 53.2922 228.143 54.7461C231.357 55.9733 232.704 56.0595 236.793 55.2991C239.457 54.8038 243.23 53.6284 245.178 52.6872L248.72 50.9759L248.193 53.6148C246.445 62.3537 246.396 62.4205 240.481 64.2474C234.952 65.9552 228.18 66.3384 224.314 65.1625ZM237.881 38.0458C237.767 37.7818 237.673 36.9736 237.673 36.2497C237.673 35.5258 236.575 33.8358 235.233 32.4941C231.705 28.9664 227.601 29.1095 223.818 32.8921C222.258 34.4528 220.981 36.4245 220.981 37.2737C220.98 38.6851 221.715 38.8052 229.535 38.6717C234.24 38.5914 237.997 38.3098 237.881 38.0458ZM12.6421 36.1053L25.2853 7.10332H35.1034L47.0882 34.6223C53.6797 49.7575 59.2899 62.8247 59.5553 63.661C59.9978 65.0552 59.5027 65.1604 53.5591 64.9357L47.0806 64.6907L42.6748 53.841L17.5019 53.3811L12.9011 65.108H0L12.6421 36.1053ZM37.3677 41.9106C37.3677 41.546 35.7087 37.1331 33.6811 32.1041C30.3359 23.8076 29.9195 23.154 29.1854 25.047C28.7404 26.1946 27.0193 30.4926 25.3607 34.5981C23.7021 38.7037 22.3451 42.1777 22.3451 42.318C22.3451 42.4583 25.7252 42.5731 29.8564 42.5731C33.9876 42.5731 37.3677 42.2751 37.3677 41.9106ZM109.162 64.4812C109.172 64.137 114.737 51.0861 121.528 35.4792L133.875 7.10315H143.734L169.049 65.1714L155.758 64.6896L151.238 53.8399L126.114 53.3807L121.513 65.1067H115.328C111.926 65.1067 109.151 64.8255 109.162 64.4812ZM142.793 33.1841C140.721 28.0201 138.922 23.6856 138.795 23.5529C138.668 23.4202 136.92 27.3453 134.912 32.2769C132.903 37.2082 131.134 41.5425 130.981 41.9081C130.828 42.2741 134.271 42.5735 138.632 42.5735H146.561L142.793 33.1841Z"/>
</mask>
<path d="M175.497 82.3017C171.582 81.0634 167.032 78.7843 166.385 77.7371C166.028 77.1591 168.039 69.6471 168.822 68.6367C168.918 68.5117 171.211 69.5786 173.917 71.0076C178.262 73.3026 179.458 73.5671 184.165 73.2747C188.727 72.9913 189.778 72.6134 191.468 70.6488C194.771 66.8087 193.82 62.0375 189.285 59.6923C186.193 58.0934 181.49 58.0869 176.257 59.6746C174.003 60.3582 171.901 60.9215 171.584 60.9265C171.268 60.9315 171.594 59.2191 172.309 57.1212L173.608 53.3068L170.883 50.6531C161.977 41.9817 165.248 27.0951 177.167 22.0559C179.757 20.9609 182.764 20.6739 190.577 20.7764C197.746 20.8705 201.685 20.5429 204.245 19.64C206.222 18.9422 208.127 18.3714 208.477 18.3714C208.827 18.3714 208.537 20.659 207.832 23.455L206.552 28.5385L203.335 28.2318C201.566 28.0631 200.119 28.0122 200.119 28.1187C200.119 28.2252 201.058 29.6959 202.205 31.3869C203.795 33.7293 204.292 35.5368 204.292 38.9768C204.292 44.2165 202.91 47.3244 199.188 50.4566L196.528 52.695L199.593 55.2213C203.661 58.5751 205.126 61.6349 205.126 66.7779C205.126 71.8384 203.747 74.7982 199.756 78.3028C194.447 82.9645 183.368 84.7913 175.499 82.3026L175.497 82.3017ZM188.772 47.4659C191.011 46.4457 193.441 42.1907 193.441 39.2913C193.441 36.4804 191.238 31.944 189.394 30.9568C180.279 26.079 172.25 39.6065 180.259 46.3458C182.939 48.6011 185.532 48.9421 188.772 47.4659ZM72.4297 64.8879C70.8266 64.3533 67.5727 62.0245 65.1989 59.713C59.965 54.6165 57.77 48.4869 58.4587 40.8913C59.869 25.3379 75.2048 16.0188 88.2502 22.7865L92.4537 24.9674V6.68652H104.973V65.1078H93.2883V60.1692L89.0596 62.7979C84.2964 65.7589 77.5749 66.6038 72.4297 64.8879ZM86.0811 53.9423C97.3222 49.2453 94.0413 31.7163 81.923 31.728C69.6119 31.7398 66.4688 48.8571 77.8485 53.9156C81.0757 55.3499 82.7008 55.3546 86.0811 53.9423ZM224.314 65.1625C218.576 63.417 213.424 59.0583 210.441 53.4232C209.284 51.2382 208.895 48.7144 208.899 43.4081C208.903 37.3595 209.227 35.6991 211.104 32.1411C213.703 27.2132 215.902 25.0655 220.944 22.5333C225.372 20.3088 233.188 20.0158 237.698 21.9053C244.763 24.865 249.6 32.7942 249.709 41.595L249.774 46.8754L235.377 46.7767C223.515 46.6953 220.981 46.8845 220.981 47.8517C220.981 50.0621 224.337 53.2922 228.143 54.7461C231.357 55.9733 232.704 56.0595 236.793 55.2991C239.457 54.8038 243.23 53.6284 245.178 52.6872L248.72 50.9759L248.193 53.6148C246.445 62.3537 246.396 62.4205 240.481 64.2474C234.952 65.9552 228.18 66.3384 224.314 65.1625ZM237.881 38.0458C237.767 37.7818 237.673 36.9736 237.673 36.2497C237.673 35.5258 236.575 33.8358 235.233 32.4941C231.705 28.9664 227.601 29.1095 223.818 32.8921C222.258 34.4528 220.981 36.4245 220.981 37.2737C220.98 38.6851 221.715 38.8052 229.535 38.6717C234.24 38.5914 237.997 38.3098 237.881 38.0458ZM12.6421 36.1053L25.2853 7.10332H35.1034L47.0882 34.6223C53.6797 49.7575 59.2899 62.8247 59.5553 63.661C59.9978 65.0552 59.5027 65.1604 53.5591 64.9357L47.0806 64.6907L42.6748 53.841L17.5019 53.3811L12.9011 65.108H0L12.6421 36.1053ZM37.3677 41.9106C37.3677 41.546 35.7087 37.1331 33.6811 32.1041C30.3359 23.8076 29.9195 23.154 29.1854 25.047C28.7404 26.1946 27.0193 30.4926 25.3607 34.5981C23.7021 38.7037 22.3451 42.1777 22.3451 42.318C22.3451 42.4583 25.7252 42.5731 29.8564 42.5731C33.9876 42.5731 37.3677 42.2751 37.3677 41.9106ZM109.162 64.4812C109.172 64.137 114.737 51.0861 121.528 35.4792L133.875 7.10315H143.734L169.049 65.1714L155.758 64.6896L151.238 53.8399L126.114 53.3807L121.513 65.1067H115.328C111.926 65.1067 109.151 64.8255 109.162 64.4812ZM142.793 33.1841C140.721 28.0201 138.922 23.6856 138.795 23.5529C138.668 23.4202 136.92 27.3453 134.912 32.2769C132.903 37.2082 131.134 41.5425 130.981 41.9081C130.828 42.2741 134.271 42.5735 138.632 42.5735H146.561L142.793 33.1841Z" fill="white" stroke="#979797" stroke-width="1.66918" mask="url(#path-1-inside-1_477_2102)"/>
</svg>
