<svg width="339" height="42" viewBox="0 0 339 42" fill="none" xmlns="http://www.w3.org/2000/svg">
<path d="M316.538 23.3634C316.622 23.2666 316.715 23.174 316.795 23.0772C318.449 21.0362 318.588 18.5533 317.174 16.2808C316.711 15.5401 316.138 14.892 315.503 14.2945C315.415 14.2103 315.33 14.1303 315.192 13.9999C316.366 14.1724 317.418 14.4838 318.436 14.9257C320.216 15.7 321.727 16.811 322.792 18.4649C323.814 20.0514 324.189 21.8147 324.164 23.679C324.147 25.0004 323.92 26.2881 323.583 27.5633C323.566 27.6264 323.549 27.6895 323.537 27.7568C323.537 27.7695 323.545 27.7863 323.554 27.8284C323.915 27.7063 324.206 27.4875 324.454 27.2098C325.026 26.5701 325.304 25.7958 325.418 24.9667C325.506 24.3144 325.527 23.6537 325.578 23.0015C325.569 22.9972 325.603 23.0057 325.616 23.0309C326.832 25.1645 327.223 27.0877 326.512 29.8021C325.94 32.0409 324.13 34.9152 320.187 35.2645C317.632 35.4033 316.261 34.8647 314.691 33.9767C313.134 32.8405 312.044 31.3592 311.577 29.4654C311.345 28.5312 311.387 27.6096 311.72 26.6879C312.187 25.4002 312.843 24.2345 313.752 23.2035C314.476 22.3828 315.019 21.4528 315.234 20.3586C315.343 19.7905 315.347 19.2266 315.229 18.6627C315.221 18.6164 315.221 18.5701 315.242 18.5196C316.58 19.8831 316.77 21.5538 316.542 23.3634" fill="#DF4D44"/>
</svg>
