<svg width="186" height="22" viewBox="0 0 186 22" fill="none" xmlns="http://www.w3.org/2000/svg">
<path d="M173.44 12.6304C173.486 12.5772 173.537 12.5262 173.581 12.473C174.491 11.3504 174.567 9.98483 173.79 8.73497C173.535 8.3276 173.22 7.97116 172.871 7.64249C172.822 7.5962 172.776 7.55222 172.699 7.48047C173.345 7.57537 173.924 7.74664 174.484 7.98967C175.463 8.41555 176.294 9.0266 176.88 9.93623C177.442 10.8088 177.648 11.7786 177.634 12.804C177.625 13.5308 177.5 14.239 177.315 14.9403C177.305 14.975 177.296 15.0098 177.289 15.0468C177.289 15.0537 177.294 15.063 177.298 15.0861C177.498 15.019 177.657 14.8987 177.794 14.7459C178.109 14.3941 178.261 13.9682 178.324 13.5122C178.372 13.1535 178.384 12.7901 178.412 12.4313C178.407 12.429 178.426 12.4337 178.433 12.4475C179.102 13.621 179.317 14.6788 178.926 16.1717C178.611 17.403 177.616 18.9839 175.447 19.176C174.042 19.2524 173.287 18.9561 172.424 18.4677C171.568 17.8428 170.968 17.0281 170.711 15.9865C170.584 15.4727 170.607 14.9658 170.79 14.4589C171.047 13.7506 171.408 13.1095 171.908 12.5424C172.306 12.0911 172.605 11.5796 172.723 10.9778C172.783 10.6653 172.785 10.3552 172.72 10.045C172.716 10.0196 172.716 9.99409 172.727 9.96632C173.463 10.7162 173.567 11.6351 173.442 12.6304" fill="#DF4D44"/>
<path d="M5.95771 5.04421H0V0.308594H16.8015V5.04421H10.8438V21.6929H5.95539V5.04421H5.95771Z" fill="white"/>
<path d="M29.7238 0.308594H36.7508L44.0834 21.6929H38.7367L37.3619 17.4156H29.1128L27.7379 21.6929H22.3912L29.7238 0.308594ZM35.987 13.1383L33.5428 5.50018H32.9318L30.4876 13.1383H35.987Z" fill="white"/>
<path d="M53.3972 0.308594H63.785C67.6041 0.308594 70.0482 2.75278 70.0482 6.2663C70.0482 7.82401 69.4673 8.95583 68.8863 9.71964C68.5507 10.1779 68.1526 10.5436 67.7568 10.8492V11.0019C68.2452 11.3375 68.6734 11.7055 69.0391 12.1638C69.6802 12.9878 70.3538 14.1196 70.3538 15.7375C70.3538 19.251 67.9096 21.6952 64.0905 21.6952H53.3972V0.308594ZM63.0212 8.86325C64.2433 8.86325 65.1599 7.94668 65.1599 6.72459C65.1599 5.50249 64.2433 4.58592 63.0212 4.58592H58.2856V8.86325H63.0212ZM63.3267 17.4179C64.5488 17.4179 65.4654 16.5013 65.4654 15.2792C65.4654 14.0571 64.5488 13.1406 63.3267 13.1406H58.2856V17.4179H63.3267Z" fill="white"/>
<path d="M85.9306 0.308594H92.9576L100.29 21.6929H94.9435L93.5687 17.4156H85.3195L83.9447 21.6929H78.598L85.9306 0.308594ZM92.1938 13.1383L89.7496 5.50018H89.1386L86.6944 13.1383H92.1938Z" fill="white"/>
<path d="M112.967 14.6651C112.967 16.3756 114.342 17.7204 116.939 17.7204C119.536 17.7204 120.605 16.651 120.605 15.4289C120.605 14.3596 119.872 13.5958 117.55 13.1375L114.189 12.5265C110.37 11.8228 108.537 9.9596 108.537 6.56875C108.537 2.90247 111.41 0 116.634 0C122.286 0 125.341 3.05523 125.341 7.33256H120.453C120.453 5.65218 119.048 4.27733 116.634 4.27733C114.465 4.27733 113.426 5.34666 113.426 6.56875C113.426 7.63809 114.037 8.18895 116.023 8.55466L119.383 9.1657C123.661 9.92951 125.494 11.7627 125.494 15.4289C125.494 19.0952 122.591 21.9977 116.939 21.9977C111.287 21.9977 108.079 18.7897 108.079 14.6651H112.967Z" fill="white"/>
<path d="M155.245 13.5977C154.91 15.1555 154.329 16.5604 153.505 17.8126C152.13 19.9212 149.625 21.9973 145.471 21.9973C139.696 21.9973 135.083 17.4446 135.083 10.9985C135.083 4.5524 139.696 0.00195312 145.468 0.00195312C149.593 0.00195312 152.037 2.04803 153.442 4.12652C154.266 5.34861 154.847 6.72347 155.245 8.25109H150.357C150.144 7.60995 149.838 7.02899 149.41 6.51053C148.676 5.62405 147.454 4.73757 145.468 4.73757C142.413 4.73757 139.969 7.18175 139.969 11.0008C139.969 14.8198 142.413 17.264 145.468 17.264C147.547 17.264 148.767 16.3775 149.47 15.4309C149.868 14.9124 150.174 14.3014 150.357 13.5977H155.245Z" fill="white"/>
<path d="M164.531 11.0008C164.531 4.55471 169.144 0.00195312 174.919 0.00195312C180.694 0.00195312 185.307 4.55471 185.307 11.0008C185.307 17.4469 180.694 21.9996 174.919 21.9996C169.144 21.9996 164.531 17.4469 164.531 11.0008ZM180.416 11.0008C180.416 7.18175 177.972 4.73757 174.917 4.73757C171.862 4.73757 169.417 7.18175 169.417 11.0008C169.417 14.8198 171.862 17.264 174.917 17.264C177.972 17.264 180.416 14.8198 180.416 11.0008Z" fill="white"/>
</svg>
