<svg width="234" height="70" viewBox="0 0 234 70" fill="none" xmlns="http://www.w3.org/2000/svg">
<path d="M197.44 36.6304C197.486 36.5772 197.537 36.5262 197.581 36.473C198.491 35.3504 198.567 33.9848 197.79 32.735C197.535 32.3276 197.22 31.9712 196.871 31.6425C196.822 31.5962 196.776 31.5522 196.699 31.4805C197.345 31.5754 197.924 31.7466 198.484 31.9897C199.463 32.4156 200.294 33.0266 200.88 33.9362C201.442 34.8088 201.648 35.7786 201.634 36.804C201.625 37.5308 201.5 38.239 201.315 38.9403C201.305 38.975 201.296 39.0098 201.289 39.0468C201.289 39.0537 201.294 39.063 201.298 39.0861C201.498 39.019 201.657 38.8987 201.794 38.7459C202.109 38.3941 202.261 37.9682 202.324 37.5122C202.372 37.1535 202.384 36.7901 202.412 36.4313C202.407 36.429 202.426 36.4337 202.433 36.4475C203.102 37.621 203.317 38.6788 202.926 40.1717C202.611 41.403 201.616 42.9839 199.447 43.176C198.042 43.2524 197.287 42.9561 196.424 42.4677C195.568 41.8428 194.968 41.0281 194.711 39.9865C194.584 39.4727 194.607 38.9658 194.79 38.4589C195.047 37.7506 195.408 37.1095 195.908 36.5424C196.306 36.0911 196.605 35.5796 196.723 34.9778C196.783 34.6653 196.785 34.3552 196.72 34.045C196.716 34.0196 196.716 33.9941 196.727 33.9663C197.463 34.7162 197.567 35.6351 197.442 36.6304" fill="#DF4D44"/>
<path d="M29.9577 29.0432H24V24.3076H40.8015V29.0432H34.8438V45.6919H29.9554V29.0432H29.9577Z" fill="white"/>
<path d="M53.7239 24.3076H60.7509L68.0835 45.6919H62.7368L61.3619 41.4146H53.1128L51.738 45.6919H46.3913L53.7239 24.3076ZM59.9871 37.1373L57.5429 29.4992H56.9319L54.4877 37.1373H59.9871Z" fill="white"/>
<path d="M77.3972 24.3076H87.785C91.6041 24.3076 94.0482 26.7518 94.0482 30.2653C94.0482 31.823 93.4673 32.9549 92.8863 33.7187C92.5507 34.1769 92.1526 34.5427 91.7568 34.8482V35.0009C92.2452 35.3366 92.6734 35.7046 93.0391 36.1629C93.6802 36.9868 94.3538 38.1187 94.3538 39.7366C94.3538 43.2501 91.9096 45.6943 88.0905 45.6943H77.3972V24.3076ZM87.0212 32.8623C88.2433 32.8623 89.1599 31.9457 89.1599 30.7236C89.1599 29.5015 88.2433 28.5849 87.0212 28.5849H82.2856V32.8623H87.0212ZM87.3267 41.4169C88.5488 41.4169 89.4654 40.5004 89.4654 39.2783C89.4654 38.0562 88.5488 37.1396 87.3267 37.1396H82.2856V41.4169H87.3267Z" fill="white"/>
<path d="M109.931 24.3076H116.958L124.29 45.6919H118.944L117.569 41.4146H109.32L107.945 45.6919H102.598L109.931 24.3076ZM116.194 37.1373L113.75 29.4992H113.139L110.694 37.1373H116.194Z" fill="white"/>
<path d="M136.967 38.6651C136.967 40.3756 138.342 41.7204 140.939 41.7204C143.536 41.7204 144.605 40.651 144.605 39.4289C144.605 38.3596 143.872 37.5958 141.55 37.1375L138.189 36.5265C134.37 35.8228 132.537 33.9596 132.537 30.5688C132.537 26.9025 135.41 24 140.634 24C146.286 24 149.341 27.0552 149.341 31.3326H144.453C144.453 29.6522 143.048 28.2773 140.634 28.2773C138.465 28.2773 137.426 29.3467 137.426 30.5688C137.426 31.6381 138.037 32.189 140.023 32.5547L143.383 33.1657C147.661 33.9295 149.494 35.7627 149.494 39.4289C149.494 43.0952 146.591 45.9977 140.939 45.9977C135.287 45.9977 132.079 42.7897 132.079 38.6651H136.967Z" fill="white"/>
<path d="M179.245 37.5982C178.91 39.1559 178.329 40.5609 177.505 41.8131C176.13 43.9216 173.625 45.9978 169.471 45.9978C163.696 45.9978 159.083 41.4451 159.083 34.999C159.083 28.5529 163.696 24.0024 169.468 24.0024C173.593 24.0024 176.037 26.0485 177.442 28.127C178.266 29.3491 178.847 30.724 179.245 32.2516H174.357C174.144 31.6104 173.838 31.0295 173.41 30.511C172.676 29.6245 171.454 28.7381 169.468 28.7381C166.413 28.7381 163.969 31.1822 163.969 35.0013C163.969 38.8203 166.413 41.2645 169.468 41.2645C171.547 41.2645 172.767 40.378 173.47 39.4314C173.868 38.9129 174.174 38.3019 174.357 37.5982H179.245Z" fill="white"/>
<path d="M188.531 35.0013C188.531 28.5552 193.144 24.0024 198.919 24.0024C204.694 24.0024 209.307 28.5552 209.307 35.0013C209.307 41.4474 204.694 46.0001 198.919 46.0001C193.144 46.0001 188.531 41.4474 188.531 35.0013ZM204.416 35.0013C204.416 31.1822 201.972 28.7381 198.917 28.7381C195.862 28.7381 193.417 31.1822 193.417 35.0013C193.417 38.8203 195.862 41.2645 198.917 41.2645C201.972 41.2645 204.416 38.8203 204.416 35.0013Z" fill="white"/>
</svg>
