<svg viewBox="0 0 24 24"  xmlns="http://www.w3.org/2000/svg" style="display:none">

	<symbol viewBox="0 0 16 22" id="main-decor-symbol">
		<path d="M5.53828 9.36337C5.62244 9.26658 5.71502 9.174 5.79498 9.0772C7.44884 7.03617 7.5877 4.55327 6.17371 2.28078C5.7108 1.54012 5.13848 0.892039 4.50302 0.294458C4.41465 0.210292 4.33049 0.130336 4.19161 -0.00012207C5.36573 0.172419 6.41779 0.483832 7.4362 0.925705C9.21632 1.70003 10.7271 2.81103 11.7918 4.46489C12.8144 6.05143 13.189 7.81471 13.1637 9.67899C13.1469 11.0004 12.9197 12.2881 12.583 13.5633C12.5662 13.6264 12.5493 13.6895 12.5367 13.7568C12.5367 13.7695 12.5451 13.7863 12.5535 13.8284C12.9154 13.7063 13.2058 13.4875 13.4541 13.2098C14.0264 12.5701 14.3042 11.7958 14.4178 10.9667C14.5062 10.3144 14.5272 9.65374 14.5777 9.00145C14.5693 8.99725 14.603 9.00566 14.6156 9.03091C15.8318 11.1645 16.2232 13.0877 15.512 15.8021C14.9396 18.0409 13.1301 20.9152 9.18688 21.2645C6.63243 21.4033 5.26052 20.8647 3.69082 19.9767C2.13375 18.8405 1.04378 17.3592 0.576662 15.4654C0.345205 14.5312 0.387299 13.6096 0.719756 12.6879C1.18688 11.4002 1.84336 10.2345 2.75235 9.20345C3.47618 8.38283 4.01906 7.4528 4.23369 6.35863C4.3431 5.79051 4.34731 5.2266 4.22947 4.66269C4.22106 4.61639 4.22107 4.5701 4.24211 4.5196C5.58035 5.8831 5.76971 7.5538 5.54246 9.36337" fill="currentColor"/>
	</symbol>

	<symbol viewBox="0 0 32 32" id="arrow-next">
		<path d="M24.3426 8.95227C24.0826 8.94727 23.8451 9.10227 23.7401 9.33977C23.6376 9.57977 23.6901 9.85727 23.8726 10.0423L28.9776 15.3598H1.2951C1.0651 15.3573 0.850097 15.4773 0.735098 15.6773C0.617598 15.8773 0.617598 16.1223 0.735098 16.3223C0.850097 16.5223 1.0651 16.6423 1.2951 16.6398H28.9776L23.8726 21.9573C23.6276 22.2123 23.6376 22.6173 23.8926 22.8623C24.1476 23.1073 24.5526 23.0998 24.7976 22.8423L31.3676 15.9998L24.7976 9.15727C24.6801 9.02977 24.5151 8.95727 24.3426 8.95227Z" fill="currentColor"/>
	</symbol>

	<symbol viewBox="0 0 40 41" id="back-to-top">
		<path d="M31.692 18.4427C31.634 18.5008 31.5651 18.5469 31.4892 18.5783C31.4133 18.6098 31.332 18.626 31.2499 18.626C31.1677 18.626 31.0864 18.6098 31.0105 18.5783C30.9346 18.5469 30.8657 18.5008 30.8077 18.4427L20.6249 8.25987V34.2505C20.6249 34.4163 20.559 34.5752 20.4418 34.6924C20.3246 34.8096 20.1656 34.8755 19.9999 34.8755C19.8341 34.8755 19.6751 34.8096 19.5579 34.6924C19.4407 34.5752 19.3749 34.4163 19.3749 34.2505V8.25987L9.19205 18.4427C9.13398 18.5007 9.06504 18.5468 8.98917 18.5782C8.9133 18.6097 8.83198 18.6258 8.74986 18.6258C8.66774 18.6258 8.58642 18.6097 8.51055 18.5782C8.43468 18.5468 8.36574 18.5007 8.30767 18.4427C8.2496 18.3846 8.20354 18.3157 8.17211 18.2398C8.14069 18.1639 8.12451 18.0826 8.12451 18.0005C8.12451 17.9184 8.14069 17.8371 8.17211 17.7612C8.20354 17.6853 8.2496 17.6164 8.30767 17.5583L19.5577 6.3083C19.6157 6.25019 19.6846 6.20409 19.7605 6.17264C19.8364 6.14119 19.9177 6.125 19.9999 6.125C20.082 6.125 20.1633 6.14119 20.2392 6.17264C20.3151 6.20409 20.384 6.25019 20.442 6.3083L31.692 17.5583C31.7502 17.6163 31.7963 17.6853 31.8277 17.7612C31.8592 17.837 31.8754 17.9184 31.8754 18.0005C31.8754 18.0826 31.8592 18.164 31.8277 18.2398C31.7963 18.3157 31.7502 18.3846 31.692 18.4427Z" fill="currentColor"/>
	</symbol>

	<symbol viewBox="0 0 25 24" id="close">
		<path d="M12.5 12.7087L7.25399 17.9547C7.16065 18.0481 7.04599 18.0981 6.90999 18.1047C6.77399 18.1114 6.65265 18.0614 6.54599 17.9547C6.43932 17.8481 6.38599 17.7301 6.38599 17.6007C6.38599 17.4714 6.43932 17.3534 6.54599 17.2467L11.792 12.0007L6.54599 6.75472C6.45265 6.66139 6.40265 6.54672 6.39599 6.41072C6.38932 6.27472 6.43932 6.15339 6.54599 6.04672C6.65265 5.94005 6.77065 5.88672 6.89999 5.88672C7.02932 5.88672 7.14732 5.94005 7.25399 6.04672L12.5 11.2927L17.746 6.04672C17.8393 5.95339 17.954 5.90339 18.09 5.89672C18.226 5.89005 18.3473 5.94005 18.454 6.04672C18.5607 6.15339 18.614 6.27139 18.614 6.40072C18.614 6.53005 18.5607 6.64805 18.454 6.75472L13.208 12.0007L18.454 17.2467C18.5473 17.3401 18.5973 17.4547 18.604 17.5907C18.6107 17.7267 18.5607 17.8481 18.454 17.9547C18.3473 18.0614 18.2293 18.1147 18.1 18.1147C17.9707 18.1147 17.8527 18.0614 17.746 17.9547L12.5 12.7087Z" fill="currentColor"/>
	</symbol>

</svg>