<svg width="185" height="184" fill="none" xmlns="http://www.w3.org/2000/svg"><path d="M74.1 14.718c-18.199 0-33.12 14.921-33.12 33.12v83.03l-19.435-19.435-5.29 5.29 25.76 25.76 2.645 2.53 2.645-2.53 25.76-25.76-5.29-5.29-19.435 19.435v-83.03c0-14.188 11.572-25.76 25.76-25.76h40.48v-7.36H74.1zm66.24 24.265l-2.645 2.53-25.76 25.76 5.29 5.29 19.435-19.435v83.03c0 14.188-11.572 25.76-25.76 25.76H70.42v7.36h40.48c18.199 0 33.12-14.921 33.12-33.12v-83.03l19.435 19.435 5.29-5.29-25.76-25.76-2.645-2.53z" fill="#fff"/></svg>