<svg width="185" height="184" fill="none" xmlns="http://www.w3.org/2000/svg"><path d="M55.7 10.925c-.115.029-.23.072-.345.115H54.09l-.46.575a1.73 1.73 0 00-.23.23l-.115.115a1.701 1.701 0 00-.23.115v.115a3.471 3.471 0 00-.46.46L4.065 63.71l-2.185 2.3 1.955 2.53 84.87 109.25a3.672 3.672 0 002.185 2.645l1.61 2.185 1.725-2.3a3.697 3.697 0 002.07-2.645v-.115l84.87-109.02 1.955-2.53-2.185-2.3-48.415-50.83a1.754 1.754 0 00-.23-.23v-.115a1.983 1.983 0 00-.345-.345l-.115-.23a3.538 3.538 0 00-.575-.46l-.345-.46h-1.035c-.23-.057-.46-.1-.69-.115-.23.014-.46.058-.69.115h-72.45a3.207 3.207 0 00-.345-.115zm2.99 7.475h25.415l-33.12 35.765L58.69 18.4zm42.205 0h25.415l7.705 35.65-33.12-35.65zM92.5 20.125l39.445 42.435H52.94L92.5 20.125zm43.125 6.555l34.04 35.88h-26.45l-7.59-35.88zm-86.25.115L41.67 62.56H15.335l34.04-35.765zM14.3 69.92h27.945l35.42 81.65L14.3 69.92zm35.88 0h84.64L92.5 167.44 50.18 69.92zm92.46 0h28.06l-63.365 81.65 35.305-81.65z" fill="#fff"/></svg>