<svg width="185" height="184" fill="none" xmlns="http://www.w3.org/2000/svg"><path d="M151.38 7.36c-14.183 0-25.76 11.577-25.76 25.76 0 6.782 2.666 12.95 6.979 17.559l-30.806 37.64H59.085c-1.8-12.447-12.534-22.08-25.465-22.08C19.437 66.24 7.86 77.818 7.86 92c0 14.184 11.577 25.761 25.76 25.761 12.93 0 23.665-9.633 25.465-22.08h42.622l29.562 39.157c-3.527 4.409-5.649 9.983-5.649 16.043 0 14.183 11.577 25.76 25.76 25.76 14.183 0 25.76-11.577 25.76-25.76 0-14.183-11.577-25.76-25.76-25.76-5.464 0-10.528 1.734-14.706 4.657l-28.455-37.684 30.116-36.814c3.834 2.27 8.285 3.6 13.045 3.6 14.183 0 25.76-11.576 25.76-25.76 0-14.182-11.577-25.76-25.76-25.76zm0 7.36c10.206 0 18.4 8.194 18.4 18.4 0 10.206-8.194 18.4-18.4 18.4a18.344 18.344 0 01-18.4-18.4c0-10.206 8.194-18.4 18.4-18.4zM33.62 73.6c10.206 0 18.4 8.194 18.4 18.4 0 10.205-8.194 18.4-18.4 18.4A18.345 18.345 0 0115.22 92c0-10.206 8.194-18.4 18.4-18.4zm117.76 58.88c10.206 0 18.4 8.194 18.4 18.4 0 10.205-8.194 18.4-18.4 18.4a18.345 18.345 0 01-18.4-18.4c0-10.206 8.194-18.4 18.4-18.4z" fill="#fff"/></svg>