<svg width="185" height="184" fill="none" xmlns="http://www.w3.org/2000/svg"><path d="M92.442 25.702c-.23.015-.445.03-.675.087-15.439.129-29.9 4.398-42.334 11.758a4.35 4.35 0 00-.863.504c-12.636 7.69-23.086 18.63-30.245 31.624a3.624 3.624 0 00-.46.834c-6.267 11.687-9.861 25.013-9.976 39.143-.1.489-.1.978 0 1.452.115 15.554 3.996 29.21 11.543 41.731a3.683 3.683 0 004.27 1.596 3.685 3.685 0 002.558-3.781l.172 2.257 13.815-8.007a3.617 3.617 0 001.912-3.191 3.68 3.68 0 00-1.869-3.235 3.7 3.7 0 00-3.737.058l-12.277 7.115c-5.232-9.688-8.395-19.851-8.941-31.567H29.94a3.703 3.703 0 003.234-1.826 3.713 3.713 0 000-3.708 3.703 3.703 0 00-3.234-1.826H15.335c.503-10.666 3.206-20.729 7.59-29.828 2.07 1.121 5.376 2.904 12.808 6.943a3.7 3.7 0 003.738-.043 3.677 3.677 0 001.768-3.278 3.694 3.694 0 00-1.998-3.162 6658.285 6658.285 0 00-12.809-6.929C32.326 60.72 40.204 52.383 49.62 46.1l7.576 12.607a3.692 3.692 0 003.22 1.826 3.72 3.72 0 003.191-1.912 3.716 3.716 0 00-.1-3.709L55.93 42.306c9.876-5.305 21.03-8.51 32.89-9.071V47.84a3.702 3.702 0 001.826 3.234 3.715 3.715 0 003.708 0 3.702 3.702 0 001.826-3.234V33.235c10.666.503 20.757 3.148 29.857 7.532l-6.972 12.866a3.7 3.7 0 00.043 3.737 3.677 3.677 0 003.278 1.769 3.694 3.694 0 003.162-1.998l6.958-12.852a77.463 77.463 0 0124.293 23.23l-12.607 7.576a3.691 3.691 0 00-1.825 3.22 3.72 3.72 0 001.912 3.191 3.714 3.714 0 003.708-.1l12.607-7.576c5.305 9.876 8.51 21.03 9.071 32.89H155.06a3.701 3.701 0 00-3.234 1.826 3.71 3.71 0 000 3.708 3.701 3.701 0 003.234 1.826h14.605c-.546 11.716-3.709 21.879-8.927 31.567l-12.291-7.115a3.7 3.7 0 00-3.737-.058 3.682 3.682 0 00-1.869 3.235c0 1.337.733 2.558 1.912 3.191l13.814 8.007.173-2.257a3.685 3.685 0 002.559 3.781 3.683 3.683 0 004.269-1.596c7.547-12.506 11.428-26.163 11.558-41.688a4.197 4.197 0 000-1.466c-.144-15.467-4.428-29.957-11.817-42.392a3.244 3.244 0 00-.417-.762h-.014c0-.014-.014-.014-.029-.028-7.676-12.622-18.587-23.058-31.553-30.217a3.69 3.69 0 00-1.02-.546 84.091 84.091 0 00-39.072-9.947 3.345 3.345 0 00-.761-.087zm42.594 55.92a3.645 3.645 0 00-1.999.545l-33.522 19.809c-1.912-1.61-4.341-2.616-7.015-2.616-6.052 0-11.04 4.988-11.04 11.04 0 6.052 4.988 11.04 11.04 11.04 6.052 0 11.04-4.988 11.04-11.04 0-.719-.086-1.438-.216-2.128l33.451-19.78a3.68 3.68 0 001.739-4.097 3.683 3.683 0 00-3.478-2.774zM92.5 106.72c1.164 0 2.142.532 2.803 1.337.144.388.36.733.633 1.049.143.403.244.834.244 1.294 0 2.07-1.61 3.68-3.68 3.68-2.07 0-3.68-1.61-3.68-3.68 0-2.07 1.61-3.68 3.68-3.68zm-22.08 33.12a3.703 3.703 0 00-3.234 1.826 3.713 3.713 0 000 3.708 3.703 3.703 0 003.234 1.826h44.16a3.702 3.702 0 003.234-1.826 3.71 3.71 0 000-3.708 3.702 3.702 0 00-3.234-1.826H70.42z" fill="#fff"/></svg>